<?xml version="1.0" encoding="UTF-8"?>
<svg xmlns="http://www.w3.org/2000/svg" xmlns:xlink="http://www.w3.org/1999/xlink" width="432pt" height="288pt" viewBox="0 0 432 288">
<defs>
<g>
<g id="glyph-0-0">
<path d="M 2.300781 0 L 0.140625 -8.148438 L 1.246094 -8.148438 L 2.484375 -2.804688 C 2.617188 -2.246094 2.730469 -1.691406 2.828125 -1.140625 C 3.035156 -2.007812 3.15625 -2.507812 3.195312 -2.644531 L 4.746094 -8.148438 L 6.046875 -8.148438 L 7.214844 -4.023438 C 7.503906 -2.996094 7.714844 -2.035156 7.847656 -1.140625 C 7.949219 -1.652344 8.085938 -2.242188 8.253906 -2.910156 L 9.53125 -8.148438 L 10.613281 -8.148438 L 8.378906 0 L 7.339844 0 L 5.625 -6.207031 C 5.476562 -6.722656 5.390625 -7.042969 5.367188 -7.164062 C 5.28125 -6.785156 5.199219 -6.464844 5.128906 -6.207031 L 3.402344 0 Z M 2.300781 0 "/>
</g>
<g id="glyph-0-1">
<path d="M 0.753906 -6.996094 L 0.753906 -8.148438 L 1.757812 -8.148438 L 1.757812 -6.996094 Z M 0.753906 0 L 0.753906 -5.902344 L 1.757812 -5.902344 L 1.757812 0 Z M 0.753906 0 "/>
</g>
<g id="glyph-0-2">
<path d="M 4.578125 0 L 4.578125 -0.746094 C 4.203125 -0.160156 3.65625 0.128906 2.929688 0.132812 C 2.457031 0.128906 2.023438 0.00390625 1.628906 -0.253906 C 1.234375 -0.511719 0.929688 -0.875 0.714844 -1.339844 C 0.496094 -1.804688 0.386719 -2.339844 0.390625 -2.945312 C 0.386719 -3.53125 0.484375 -4.066406 0.683594 -4.546875 C 0.875 -5.027344 1.167969 -5.394531 1.566406 -5.652344 C 1.957031 -5.90625 2.398438 -6.035156 2.882812 -6.035156 C 3.238281 -6.035156 3.554688 -5.957031 3.832031 -5.808594 C 4.109375 -5.65625 4.335938 -5.460938 4.511719 -5.222656 L 4.511719 -8.148438 L 5.507812 -8.148438 L 5.507812 0 Z M 1.417969 -2.945312 C 1.417969 -2.1875 1.574219 -1.621094 1.894531 -1.25 C 2.207031 -0.871094 2.585938 -0.683594 3.023438 -0.6875 C 3.460938 -0.683594 3.832031 -0.863281 4.136719 -1.222656 C 4.441406 -1.578125 4.59375 -2.125 4.597656 -2.863281 C 4.59375 -3.667969 4.4375 -4.261719 4.128906 -4.640625 C 3.816406 -5.015625 3.433594 -5.203125 2.980469 -5.207031 C 2.53125 -5.203125 2.160156 -5.019531 1.863281 -4.660156 C 1.566406 -4.292969 1.417969 -3.722656 1.417969 -2.945312 Z M 1.417969 -2.945312 "/>
</g>
<g id="glyph-0-3">
<path d="M 4.789062 -1.902344 L 5.824219 -1.773438 C 5.660156 -1.167969 5.355469 -0.699219 4.917969 -0.367188 C 4.472656 -0.0351562 3.910156 0.128906 3.230469 0.132812 C 2.363281 0.128906 1.679688 -0.132812 1.175781 -0.664062 C 0.667969 -1.191406 0.414062 -1.9375 0.417969 -2.902344 C 0.414062 -3.890625 0.671875 -4.660156 1.183594 -5.210938 C 1.691406 -5.757812 2.351562 -6.035156 3.171875 -6.035156 C 3.957031 -6.035156 4.601562 -5.765625 5.105469 -5.226562 C 5.601562 -4.6875 5.851562 -3.929688 5.855469 -2.960938 C 5.851562 -2.898438 5.851562 -2.8125 5.851562 -2.695312 L 1.449219 -2.695312 C 1.484375 -2.046875 1.667969 -1.546875 2 -1.203125 C 2.328125 -0.855469 2.742188 -0.683594 3.234375 -0.6875 C 3.601562 -0.683594 3.914062 -0.78125 4.171875 -0.976562 C 4.429688 -1.167969 4.632812 -1.476562 4.789062 -1.902344 Z M 1.507812 -3.519531 L 4.800781 -3.519531 C 4.753906 -4.011719 4.628906 -4.382812 4.421875 -4.632812 C 4.101562 -5.015625 3.6875 -5.207031 3.183594 -5.210938 C 2.722656 -5.207031 2.335938 -5.054688 2.023438 -4.75 C 1.707031 -4.441406 1.535156 -4.03125 1.507812 -3.519531 Z M 1.507812 -3.519531 "/>
</g>
<g id="glyph-0-4">
</g>
<g id="glyph-0-5">
<path d="M 0.75 0 L 0.75 -5.902344 L 1.652344 -5.902344 L 1.652344 -5.0625 C 2.082031 -5.710938 2.707031 -6.035156 3.527344 -6.035156 C 3.882812 -6.035156 4.207031 -5.96875 4.507812 -5.84375 C 4.804688 -5.710938 5.03125 -5.542969 5.179688 -5.339844 C 5.328125 -5.128906 5.429688 -4.882812 5.492188 -4.601562 C 5.523438 -4.414062 5.542969 -4.089844 5.546875 -3.628906 L 5.546875 0 L 4.546875 0 L 4.546875 -3.589844 C 4.546875 -3.996094 4.507812 -4.300781 4.429688 -4.503906 C 4.351562 -4.703125 4.210938 -4.863281 4.015625 -4.988281 C 3.8125 -5.105469 3.582031 -5.167969 3.316406 -5.167969 C 2.890625 -5.167969 2.523438 -5.03125 2.214844 -4.761719 C 1.902344 -4.488281 1.746094 -3.976562 1.75 -3.222656 L 1.75 0 Z M 0.75 0 "/>
</g>
<g id="glyph-0-6">
<path d="M 0.378906 -2.949219 C 0.375 -4.039062 0.679688 -4.851562 1.289062 -5.378906 C 1.796875 -5.816406 2.414062 -6.035156 3.144531 -6.035156 C 3.953125 -6.035156 4.617188 -5.769531 5.132812 -5.238281 C 5.648438 -4.707031 5.90625 -3.972656 5.90625 -3.035156 C 5.90625 -2.273438 5.789062 -1.675781 5.5625 -1.242188 C 5.332031 -0.804688 5.003906 -0.464844 4.570312 -0.226562 C 4.132812 0.0117188 3.65625 0.128906 3.144531 0.132812 C 2.316406 0.128906 1.648438 -0.132812 1.140625 -0.660156 C 0.628906 -1.1875 0.375 -1.949219 0.378906 -2.949219 Z M 1.40625 -2.949219 C 1.40625 -2.191406 1.570312 -1.625 1.898438 -1.25 C 2.226562 -0.871094 2.640625 -0.683594 3.144531 -0.6875 C 3.640625 -0.683594 4.054688 -0.875 4.382812 -1.253906 C 4.710938 -1.632812 4.875 -2.207031 4.878906 -2.984375 C 4.875 -3.710938 4.707031 -4.265625 4.378906 -4.640625 C 4.042969 -5.015625 3.632812 -5.203125 3.144531 -5.207031 C 2.640625 -5.203125 2.226562 -5.015625 1.898438 -4.644531 C 1.570312 -4.269531 1.40625 -3.703125 1.40625 -2.949219 Z M 1.40625 -2.949219 "/>
</g>
<g id="glyph-0-7">
<path d="M 0.738281 0 L 0.738281 -5.902344 L 1.640625 -5.902344 L 1.640625 -5.007812 C 1.867188 -5.425781 2.078125 -5.703125 2.273438 -5.835938 C 2.46875 -5.96875 2.683594 -6.035156 2.917969 -6.035156 C 3.253906 -6.035156 3.59375 -5.925781 3.945312 -5.710938 L 3.601562 -4.785156 C 3.355469 -4.925781 3.109375 -4.996094 2.867188 -5 C 2.644531 -4.996094 2.449219 -4.929688 2.277344 -4.800781 C 2.101562 -4.667969 1.976562 -4.488281 1.90625 -4.257812 C 1.789062 -3.898438 1.734375 -3.507812 1.738281 -3.089844 L 1.738281 0 Z M 0.738281 0 "/>
</g>
<g id="glyph-0-8">
<path d="M 0.75 0 L 0.75 -5.902344 L 1.644531 -5.902344 L 1.644531 -5.074219 C 1.828125 -5.363281 2.074219 -5.59375 2.382812 -5.769531 C 2.6875 -5.945312 3.039062 -6.035156 3.433594 -6.035156 C 3.871094 -6.035156 4.226562 -5.941406 4.507812 -5.761719 C 4.785156 -5.578125 4.984375 -5.324219 5.101562 -5 C 5.566406 -5.6875 6.175781 -6.035156 6.925781 -6.035156 C 7.507812 -6.035156 7.957031 -5.871094 8.273438 -5.546875 C 8.585938 -5.222656 8.742188 -4.722656 8.746094 -4.050781 L 8.746094 0 L 7.753906 0 L 7.753906 -3.71875 C 7.75 -4.113281 7.71875 -4.402344 7.65625 -4.582031 C 7.589844 -4.757812 7.472656 -4.898438 7.300781 -5.007812 C 7.128906 -5.113281 6.929688 -5.167969 6.703125 -5.167969 C 6.285156 -5.167969 5.9375 -5.027344 5.667969 -4.753906 C 5.390625 -4.472656 5.253906 -4.03125 5.257812 -3.429688 L 5.257812 0 L 4.257812 0 L 4.257812 -3.835938 C 4.253906 -4.277344 4.171875 -4.609375 4.011719 -4.832031 C 3.847656 -5.054688 3.582031 -5.167969 3.210938 -5.167969 C 2.929688 -5.167969 2.667969 -5.09375 2.429688 -4.945312 C 2.191406 -4.796875 2.019531 -4.578125 1.910156 -4.292969 C 1.800781 -4.007812 1.746094 -3.597656 1.75 -3.0625 L 1.75 0 Z M 0.75 0 "/>
</g>
<g id="glyph-0-9">
<path d="M 4.601562 -0.726562 C 4.226562 -0.410156 3.871094 -0.1875 3.53125 -0.0585938 C 3.183594 0.0664062 2.816406 0.128906 2.429688 0.132812 C 1.777344 0.128906 1.277344 -0.0273438 0.933594 -0.339844 C 0.582031 -0.65625 0.410156 -1.058594 0.410156 -1.554688 C 0.410156 -1.839844 0.472656 -2.105469 0.605469 -2.347656 C 0.734375 -2.585938 0.910156 -2.777344 1.125 -2.921875 C 1.335938 -3.066406 1.574219 -3.175781 1.84375 -3.25 C 2.039062 -3.300781 2.335938 -3.351562 2.734375 -3.402344 C 3.539062 -3.496094 4.132812 -3.609375 4.519531 -3.746094 C 4.519531 -3.878906 4.523438 -3.96875 4.523438 -4.007812 C 4.523438 -4.414062 4.425781 -4.699219 4.238281 -4.867188 C 3.980469 -5.089844 3.601562 -5.203125 3.101562 -5.207031 C 2.625 -5.203125 2.277344 -5.121094 2.058594 -4.957031 C 1.832031 -4.792969 1.667969 -4.5 1.5625 -4.085938 L 0.582031 -4.21875 C 0.667969 -4.636719 0.816406 -4.972656 1.023438 -5.230469 C 1.222656 -5.484375 1.515625 -5.683594 1.90625 -5.824219 C 2.289062 -5.964844 2.738281 -6.035156 3.246094 -6.035156 C 3.746094 -6.035156 4.152344 -5.972656 4.472656 -5.855469 C 4.785156 -5.734375 5.019531 -5.585938 5.167969 -5.410156 C 5.316406 -5.226562 5.417969 -5 5.480469 -4.730469 C 5.511719 -4.554688 5.53125 -4.25 5.53125 -3.808594 L 5.53125 -2.472656 C 5.53125 -1.542969 5.550781 -0.953125 5.59375 -0.707031 C 5.632812 -0.460938 5.71875 -0.226562 5.847656 0 L 4.800781 0 C 4.691406 -0.207031 4.625 -0.449219 4.601562 -0.726562 Z M 4.519531 -2.960938 C 4.152344 -2.808594 3.609375 -2.683594 2.882812 -2.585938 C 2.46875 -2.523438 2.175781 -2.457031 2.011719 -2.382812 C 1.839844 -2.308594 1.710938 -2.199219 1.617188 -2.058594 C 1.523438 -1.910156 1.476562 -1.753906 1.476562 -1.582031 C 1.476562 -1.316406 1.574219 -1.09375 1.777344 -0.914062 C 1.976562 -0.734375 2.273438 -0.644531 2.667969 -0.648438 C 3.050781 -0.644531 3.394531 -0.730469 3.695312 -0.902344 C 3.992188 -1.070312 4.210938 -1.300781 4.355469 -1.59375 C 4.460938 -1.820312 4.515625 -2.152344 4.519531 -2.59375 Z M 4.519531 -2.960938 "/>
</g>
<g id="glyph-0-10">
<path d="M 0.726562 0 L 0.726562 -8.148438 L 1.726562 -8.148438 L 1.726562 0 Z M 0.726562 0 "/>
</g>
<g id="glyph-0-11">
<path d="M 0.511719 -2.617188 L 1.527344 -2.707031 C 1.574219 -2.296875 1.6875 -1.960938 1.863281 -1.703125 C 2.039062 -1.441406 2.3125 -1.230469 2.683594 -1.070312 C 3.050781 -0.90625 3.464844 -0.824219 3.933594 -0.828125 C 4.339844 -0.824219 4.703125 -0.886719 5.023438 -1.011719 C 5.335938 -1.132812 5.570312 -1.300781 5.726562 -1.511719 C 5.875 -1.722656 5.953125 -1.953125 5.957031 -2.210938 C 5.953125 -2.460938 5.878906 -2.683594 5.734375 -2.878906 C 5.582031 -3.066406 5.335938 -3.230469 5 -3.363281 C 4.777344 -3.445312 4.296875 -3.574219 3.550781 -3.757812 C 2.800781 -3.933594 2.273438 -4.105469 1.976562 -4.269531 C 1.585938 -4.46875 1.296875 -4.722656 1.109375 -5.027344 C 0.914062 -5.328125 0.820312 -5.664062 0.824219 -6.039062 C 0.820312 -6.449219 0.9375 -6.832031 1.171875 -7.191406 C 1.40625 -7.546875 1.746094 -7.820312 2.195312 -8.007812 C 2.640625 -8.191406 3.140625 -8.285156 3.691406 -8.285156 C 4.292969 -8.285156 4.824219 -8.1875 5.289062 -7.992188 C 5.746094 -7.796875 6.101562 -7.511719 6.351562 -7.136719 C 6.597656 -6.757812 6.730469 -6.328125 6.753906 -5.851562 L 5.71875 -5.773438 C 5.664062 -6.285156 5.472656 -6.675781 5.152344 -6.941406 C 4.828125 -7.203125 4.355469 -7.335938 3.734375 -7.335938 C 3.078125 -7.335938 2.605469 -7.214844 2.308594 -6.976562 C 2.011719 -6.734375 1.863281 -6.445312 1.863281 -6.113281 C 1.863281 -5.816406 1.96875 -5.578125 2.179688 -5.390625 C 2.382812 -5.199219 2.921875 -5.003906 3.800781 -4.808594 C 4.675781 -4.609375 5.277344 -4.4375 5.605469 -4.289062 C 6.078125 -4.070312 6.429688 -3.792969 6.65625 -3.457031 C 6.882812 -3.121094 6.996094 -2.734375 6.996094 -2.300781 C 6.996094 -1.867188 6.871094 -1.457031 6.621094 -1.074219 C 6.371094 -0.6875 6.011719 -0.390625 5.550781 -0.179688 C 5.082031 0.0351562 4.5625 0.140625 3.984375 0.140625 C 3.246094 0.140625 2.625 0.0351562 2.128906 -0.179688 C 1.628906 -0.394531 1.238281 -0.71875 0.957031 -1.152344 C 0.671875 -1.582031 0.523438 -2.070312 0.511719 -2.617188 Z M 0.511719 -2.617188 "/>
</g>
<g id="glyph-0-12">
<path d="M 4.601562 -2.160156 L 5.585938 -2.035156 C 5.472656 -1.351562 5.199219 -0.820312 4.757812 -0.441406 C 4.3125 -0.0585938 3.769531 0.128906 3.128906 0.132812 C 2.320312 0.128906 1.667969 -0.132812 1.179688 -0.65625 C 0.6875 -1.183594 0.445312 -1.941406 0.445312 -2.929688 C 0.445312 -3.5625 0.550781 -4.117188 0.761719 -4.597656 C 0.972656 -5.074219 1.292969 -5.433594 1.722656 -5.675781 C 2.152344 -5.914062 2.621094 -6.035156 3.132812 -6.035156 C 3.769531 -6.035156 4.292969 -5.871094 4.703125 -5.546875 C 5.109375 -5.222656 5.371094 -4.761719 5.492188 -4.167969 L 4.519531 -4.019531 C 4.421875 -4.414062 4.257812 -4.710938 4.023438 -4.910156 C 3.785156 -5.109375 3.5 -5.207031 3.171875 -5.210938 C 2.664062 -5.207031 2.257812 -5.027344 1.945312 -4.667969 C 1.628906 -4.304688 1.46875 -3.734375 1.472656 -2.957031 C 1.46875 -2.160156 1.621094 -1.582031 1.925781 -1.226562 C 2.226562 -0.863281 2.625 -0.683594 3.117188 -0.6875 C 3.507812 -0.683594 3.835938 -0.804688 4.101562 -1.046875 C 4.363281 -1.285156 4.527344 -1.65625 4.601562 -2.160156 Z M 4.601562 -2.160156 "/>
</g>
<g id="glyph-0-13">
<path d="M 0.910156 0 L 0.910156 -8.148438 L 1.988281 -8.148438 L 1.988281 -4.800781 L 6.222656 -4.800781 L 6.222656 -8.148438 L 7.300781 -8.148438 L 7.300781 0 L 6.222656 0 L 6.222656 -3.839844 L 1.988281 -3.839844 L 1.988281 0 Z M 0.910156 0 "/>
</g>
<g id="glyph-0-14">
<path d="M 0.351562 -1.761719 L 1.339844 -1.917969 C 1.390625 -1.519531 1.542969 -1.214844 1.800781 -1.003906 C 2.050781 -0.789062 2.40625 -0.683594 2.867188 -0.6875 C 3.320312 -0.683594 3.660156 -0.777344 3.886719 -0.96875 C 4.105469 -1.152344 4.21875 -1.375 4.222656 -1.628906 C 4.21875 -1.855469 4.121094 -2.03125 3.929688 -2.160156 C 3.789062 -2.25 3.449219 -2.363281 2.90625 -2.5 C 2.171875 -2.683594 1.660156 -2.84375 1.378906 -2.980469 C 1.09375 -3.113281 0.878906 -3.300781 0.734375 -3.542969 C 0.585938 -3.78125 0.515625 -4.046875 0.515625 -4.335938 C 0.515625 -4.597656 0.574219 -4.839844 0.695312 -5.066406 C 0.816406 -5.289062 0.980469 -5.476562 1.1875 -5.625 C 1.339844 -5.738281 1.550781 -5.832031 1.824219 -5.914062 C 2.089844 -5.992188 2.378906 -6.035156 2.691406 -6.035156 C 3.148438 -6.035156 3.554688 -5.96875 3.90625 -5.835938 C 4.253906 -5.703125 4.511719 -5.519531 4.683594 -5.292969 C 4.847656 -5.0625 4.964844 -4.757812 5.027344 -4.378906 L 4.050781 -4.246094 C 4.003906 -4.546875 3.875 -4.785156 3.664062 -4.957031 C 3.445312 -5.125 3.144531 -5.207031 2.761719 -5.210938 C 2.300781 -5.207031 1.972656 -5.132812 1.777344 -4.984375 C 1.578125 -4.832031 1.480469 -4.65625 1.484375 -4.453125 C 1.480469 -4.320312 1.523438 -4.203125 1.605469 -4.101562 C 1.683594 -3.992188 1.808594 -3.902344 1.988281 -3.835938 C 2.085938 -3.792969 2.382812 -3.707031 2.875 -3.578125 C 3.578125 -3.386719 4.070312 -3.230469 4.351562 -3.113281 C 4.628906 -2.988281 4.847656 -2.816406 5.011719 -2.589844 C 5.167969 -2.359375 5.25 -2.074219 5.25 -1.734375 C 5.25 -1.398438 5.152344 -1.082031 4.957031 -0.792969 C 4.761719 -0.496094 4.480469 -0.269531 4.117188 -0.109375 C 3.746094 0.0507812 3.332031 0.128906 2.875 0.132812 C 2.105469 0.128906 1.519531 -0.0273438 1.117188 -0.34375 C 0.714844 -0.660156 0.460938 -1.132812 0.351562 -1.761719 Z M 0.351562 -1.761719 "/>
</g>
<g id="glyph-0-15">
<path d="M 0.75 0 L 0.75 -8.148438 L 1.75 -8.148438 L 1.75 -5.222656 C 2.214844 -5.761719 2.804688 -6.035156 3.519531 -6.035156 C 3.953125 -6.035156 4.332031 -5.949219 4.65625 -5.777344 C 4.976562 -5.605469 5.207031 -5.367188 5.347656 -5.0625 C 5.484375 -4.757812 5.554688 -4.316406 5.558594 -3.738281 L 5.558594 0 L 4.558594 0 L 4.558594 -3.738281 C 4.558594 -4.238281 4.449219 -4.601562 4.230469 -4.828125 C 4.011719 -5.054688 3.703125 -5.167969 3.3125 -5.171875 C 3.011719 -5.167969 2.734375 -5.089844 2.472656 -4.941406 C 2.210938 -4.785156 2.023438 -4.578125 1.914062 -4.316406 C 1.800781 -4.050781 1.746094 -3.6875 1.75 -3.230469 L 1.75 0 Z M 0.75 0 "/>
</g>
<g id="glyph-0-16">
<path d="M 0.894531 0 L 0.894531 -8.148438 L 4.507812 -8.148438 C 5.230469 -8.144531 5.785156 -8.070312 6.164062 -7.925781 C 6.539062 -7.777344 6.839844 -7.519531 7.066406 -7.152344 C 7.292969 -6.78125 7.40625 -6.371094 7.40625 -5.925781 C 7.40625 -5.34375 7.21875 -4.855469 6.84375 -4.460938 C 6.46875 -4.0625 5.890625 -3.8125 5.113281 -3.707031 C 5.394531 -3.566406 5.609375 -3.429688 5.761719 -3.300781 C 6.074219 -3.007812 6.375 -2.648438 6.65625 -2.21875 L 8.074219 0 L 6.71875 0 L 5.640625 -1.695312 C 5.324219 -2.179688 5.066406 -2.554688 4.863281 -2.816406 C 4.660156 -3.074219 4.476562 -3.257812 4.316406 -3.363281 C 4.152344 -3.464844 3.988281 -3.535156 3.824219 -3.578125 C 3.699219 -3.601562 3.5 -3.613281 3.222656 -3.617188 L 1.972656 -3.617188 L 1.972656 0 Z M 1.972656 -4.550781 L 4.289062 -4.550781 C 4.78125 -4.546875 5.164062 -4.597656 5.445312 -4.703125 C 5.71875 -4.800781 5.929688 -4.964844 6.078125 -5.191406 C 6.21875 -5.417969 6.292969 -5.660156 6.296875 -5.925781 C 6.292969 -6.304688 6.152344 -6.621094 5.875 -6.871094 C 5.59375 -7.117188 5.152344 -7.242188 4.550781 -7.246094 L 1.972656 -7.246094 Z M 1.972656 -4.550781 "/>
</g>
<g id="glyph-0-17">
<path d="M 5.730469 -0.960938 L 5.730469 0 L 0.34375 0 C 0.332031 -0.238281 0.371094 -0.46875 0.460938 -0.695312 C 0.597656 -1.058594 0.816406 -1.417969 1.121094 -1.777344 C 1.417969 -2.128906 1.855469 -2.542969 2.429688 -3.011719 C 3.3125 -3.738281 3.910156 -4.3125 4.222656 -4.738281 C 4.53125 -5.160156 4.6875 -5.5625 4.691406 -5.941406 C 4.6875 -6.335938 4.546875 -6.667969 4.265625 -6.941406 C 3.980469 -7.210938 3.609375 -7.347656 3.15625 -7.351562 C 2.671875 -7.347656 2.285156 -7.203125 2 -6.917969 C 1.707031 -6.625 1.5625 -6.226562 1.5625 -5.71875 L 0.535156 -5.824219 C 0.601562 -6.589844 0.867188 -7.171875 1.328125 -7.574219 C 1.785156 -7.976562 2.402344 -8.179688 3.179688 -8.179688 C 3.957031 -8.179688 4.574219 -7.960938 5.035156 -7.527344 C 5.488281 -7.09375 5.71875 -6.558594 5.71875 -5.917969 C 5.71875 -5.589844 5.648438 -5.269531 5.515625 -4.957031 C 5.378906 -4.640625 5.160156 -4.308594 4.851562 -3.960938 C 4.542969 -3.613281 4.027344 -3.132812 3.3125 -2.527344 C 2.707031 -2.019531 2.324219 -1.679688 2.15625 -1.503906 C 1.984375 -1.320312 1.84375 -1.140625 1.734375 -0.960938 Z M 5.730469 -0.960938 "/>
</g>
<g id="glyph-0-18">
<path d="M 0.878906 0 L 0.878906 -8.148438 L 3.683594 -8.148438 C 4.3125 -8.144531 4.796875 -8.105469 5.136719 -8.03125 C 5.601562 -7.917969 6 -7.722656 6.328125 -7.445312 C 6.757812 -7.082031 7.078125 -6.617188 7.292969 -6.054688 C 7.503906 -5.484375 7.609375 -4.839844 7.613281 -4.117188 C 7.609375 -3.496094 7.539062 -2.949219 7.394531 -2.472656 C 7.25 -1.996094 7.0625 -1.597656 6.839844 -1.285156 C 6.609375 -0.96875 6.363281 -0.722656 6.097656 -0.546875 C 5.828125 -0.363281 5.503906 -0.226562 5.125 -0.136719 C 4.746094 -0.0429688 4.308594 0 3.816406 0 Z M 1.957031 -0.960938 L 3.695312 -0.960938 C 4.230469 -0.960938 4.652344 -1.007812 4.957031 -1.109375 C 5.261719 -1.207031 5.503906 -1.351562 5.691406 -1.535156 C 5.941406 -1.789062 6.140625 -2.128906 6.285156 -2.5625 C 6.425781 -2.992188 6.496094 -3.515625 6.5 -4.132812 C 6.496094 -4.984375 6.359375 -5.640625 6.082031 -6.097656 C 5.800781 -6.554688 5.460938 -6.863281 5.0625 -7.019531 C 4.773438 -7.128906 4.308594 -7.183594 3.667969 -7.183594 L 1.957031 -7.183594 Z M 1.957031 -0.960938 "/>
</g>
<g id="glyph-1-0">
<path d="M 0.367188 -3.105469 C 0.363281 -3.847656 0.4375 -4.445312 0.59375 -4.902344 C 0.742188 -5.355469 0.972656 -5.707031 1.277344 -5.953125 C 1.578125 -6.199219 1.957031 -6.320312 2.417969 -6.324219 C 2.753906 -6.320312 3.050781 -6.253906 3.308594 -6.121094 C 3.5625 -5.984375 3.773438 -5.789062 3.9375 -5.53125 C 4.101562 -5.273438 4.230469 -4.960938 4.328125 -4.59375 C 4.421875 -4.226562 4.46875 -3.730469 4.472656 -3.105469 C 4.46875 -2.367188 4.394531 -1.769531 4.242188 -1.316406 C 4.089844 -0.859375 3.863281 -0.507812 3.5625 -0.261719 C 3.257812 -0.015625 2.875 0.105469 2.417969 0.109375 C 1.808594 0.105469 1.332031 -0.109375 0.988281 -0.546875 C 0.570312 -1.066406 0.363281 -1.921875 0.367188 -3.105469 Z M 1.160156 -3.105469 C 1.160156 -2.070312 1.28125 -1.378906 1.523438 -1.039062 C 1.765625 -0.695312 2.0625 -0.527344 2.417969 -0.527344 C 2.773438 -0.527344 3.074219 -0.699219 3.316406 -1.042969 C 3.558594 -1.386719 3.679688 -2.074219 3.679688 -3.105469 C 3.679688 -4.144531 3.558594 -4.832031 3.316406 -5.171875 C 3.074219 -5.511719 2.769531 -5.683594 2.410156 -5.683594 C 2.050781 -5.683594 1.769531 -5.53125 1.558594 -5.234375 C 1.292969 -4.84375 1.160156 -4.136719 1.160156 -3.105469 Z M 1.160156 -3.105469 "/>
</g>
<g id="glyph-1-1">
<path d="M 0.800781 0 L 0.800781 -0.882812 L 1.679688 -0.882812 L 1.679688 0 Z M 0.800781 0 "/>
</g>
<g id="glyph-1-2">
<path d="M 4.429688 -0.742188 L 4.429688 0 L 0.265625 0 C 0.257812 -0.1875 0.289062 -0.367188 0.355469 -0.539062 C 0.460938 -0.820312 0.628906 -1.097656 0.863281 -1.375 C 1.09375 -1.648438 1.433594 -1.964844 1.878906 -2.328125 C 2.5625 -2.886719 3.023438 -3.332031 3.265625 -3.664062 C 3.5 -3.988281 3.621094 -4.300781 3.625 -4.59375 C 3.621094 -4.898438 3.511719 -5.15625 3.296875 -5.367188 C 3.074219 -5.578125 2.789062 -5.683594 2.441406 -5.683594 C 2.066406 -5.683594 1.769531 -5.570312 1.546875 -5.347656 C 1.320312 -5.125 1.207031 -4.816406 1.207031 -4.421875 L 0.414062 -4.503906 C 0.464844 -5.09375 0.667969 -5.542969 1.027344 -5.855469 C 1.378906 -6.164062 1.855469 -6.320312 2.457031 -6.324219 C 3.058594 -6.320312 3.539062 -6.152344 3.890625 -5.820312 C 4.242188 -5.484375 4.417969 -5.070312 4.421875 -4.578125 C 4.417969 -4.320312 4.367188 -4.074219 4.265625 -3.832031 C 4.164062 -3.589844 3.992188 -3.332031 3.753906 -3.0625 C 3.511719 -2.792969 3.113281 -2.425781 2.5625 -1.957031 C 2.09375 -1.566406 1.796875 -1.300781 1.664062 -1.160156 C 1.53125 -1.019531 1.421875 -0.878906 1.339844 -0.742188 Z M 4.429688 -0.742188 "/>
</g>
<g id="glyph-1-3">
<path d="M 0.367188 -1.648438 L 1.175781 -1.71875 C 1.234375 -1.320312 1.375 -1.023438 1.59375 -0.824219 C 1.8125 -0.625 2.078125 -0.527344 2.390625 -0.527344 C 2.761719 -0.527344 3.074219 -0.667969 3.335938 -0.949219 C 3.589844 -1.230469 3.71875 -1.601562 3.722656 -2.066406 C 3.71875 -2.503906 3.59375 -2.851562 3.347656 -3.109375 C 3.097656 -3.363281 2.773438 -3.492188 2.375 -3.492188 C 2.125 -3.492188 1.902344 -3.433594 1.703125 -3.320312 C 1.5 -3.207031 1.34375 -3.0625 1.230469 -2.882812 L 0.503906 -2.976562 L 1.113281 -6.214844 L 4.246094 -6.214844 L 4.246094 -5.472656 L 1.730469 -5.472656 L 1.390625 -3.78125 C 1.765625 -4.039062 2.164062 -4.171875 2.582031 -4.175781 C 3.128906 -4.171875 3.59375 -3.980469 3.972656 -3.605469 C 4.351562 -3.222656 4.539062 -2.734375 4.542969 -2.136719 C 4.539062 -1.5625 4.375 -1.070312 4.042969 -0.65625 C 3.636719 -0.148438 3.085938 0.105469 2.390625 0.109375 C 1.816406 0.105469 1.347656 -0.0507812 0.984375 -0.371094 C 0.621094 -0.691406 0.414062 -1.117188 0.367188 -1.648438 Z M 0.367188 -1.648438 "/>
</g>
<g id="glyph-1-4">
<path d="M 0.417969 -5.472656 L 0.417969 -6.21875 L 4.496094 -6.21875 L 4.496094 -5.617188 C 4.089844 -5.1875 3.691406 -4.621094 3.300781 -3.914062 C 2.902344 -3.203125 2.601562 -2.472656 2.390625 -1.730469 C 2.234375 -1.199219 2.132812 -0.625 2.09375 0 L 1.296875 0 C 1.304688 -0.492188 1.402344 -1.089844 1.589844 -1.792969 C 1.773438 -2.496094 2.042969 -3.171875 2.390625 -3.824219 C 2.738281 -4.476562 3.109375 -5.027344 3.503906 -5.472656 Z M 0.417969 -5.472656 "/>
</g>
<g id="glyph-1-5">
<path d="M 3.277344 0 L 2.503906 0 L 2.503906 -4.929688 C 2.316406 -4.75 2.074219 -4.574219 1.773438 -4.394531 C 1.46875 -4.214844 1.195312 -4.082031 0.957031 -3.996094 L 0.957031 -4.742188 C 1.386719 -4.941406 1.765625 -5.1875 2.089844 -5.480469 C 2.414062 -5.769531 2.644531 -6.050781 2.78125 -6.324219 L 3.277344 -6.324219 Z M 3.277344 0 "/>
</g>
<g id="glyph-2-0">
<path d="M 0.863281 0 L 0.863281 -7.875 L 4.355469 -7.875 C 5.054688 -7.875 5.589844 -7.800781 5.957031 -7.660156 C 6.320312 -7.515625 6.613281 -7.265625 6.832031 -6.910156 C 7.050781 -6.550781 7.160156 -6.15625 7.160156 -5.726562 C 7.160156 -5.164062 6.976562 -4.695312 6.617188 -4.3125 C 6.25 -3.929688 5.691406 -3.683594 4.941406 -3.582031 C 5.214844 -3.445312 5.425781 -3.316406 5.570312 -3.191406 C 5.871094 -2.910156 6.160156 -2.5625 6.433594 -2.144531 L 7.804688 0 L 6.492188 0 L 5.453125 -1.636719 C 5.144531 -2.105469 4.894531 -2.46875 4.699219 -2.722656 C 4.503906 -2.96875 4.328125 -3.144531 4.171875 -3.246094 C 4.015625 -3.347656 3.855469 -3.417969 3.695312 -3.460938 C 3.574219 -3.480469 3.382812 -3.492188 3.117188 -3.496094 L 1.90625 -3.496094 L 1.90625 0 Z M 1.90625 -4.398438 L 4.148438 -4.398438 C 4.621094 -4.394531 4.992188 -4.445312 5.261719 -4.546875 C 5.53125 -4.644531 5.734375 -4.800781 5.875 -5.019531 C 6.011719 -5.234375 6.082031 -5.46875 6.085938 -5.726562 C 6.082031 -6.09375 5.945312 -6.402344 5.679688 -6.644531 C 5.40625 -6.882812 4.980469 -7 4.398438 -7.003906 L 1.90625 -7.003906 Z M 1.90625 -4.398438 "/>
</g>
<g id="glyph-2-1">
<path d="M 5.539062 -0.929688 L 5.539062 0 L 0.332031 0 C 0.320312 -0.230469 0.359375 -0.453125 0.445312 -0.671875 C 0.578125 -1.023438 0.789062 -1.371094 1.082031 -1.71875 C 1.371094 -2.058594 1.792969 -2.457031 2.347656 -2.910156 C 3.203125 -3.609375 3.78125 -4.164062 4.082031 -4.578125 C 4.378906 -4.984375 4.527344 -5.375 4.53125 -5.742188 C 4.527344 -6.125 4.390625 -6.445312 4.121094 -6.710938 C 3.84375 -6.96875 3.488281 -7.101562 3.050781 -7.105469 C 2.582031 -7.101562 2.210938 -6.960938 1.933594 -6.6875 C 1.652344 -6.40625 1.507812 -6.019531 1.507812 -5.527344 L 0.515625 -5.628906 C 0.582031 -6.367188 0.835938 -6.933594 1.28125 -7.324219 C 1.722656 -7.710938 2.320312 -7.902344 3.070312 -7.90625 C 3.828125 -7.902344 4.425781 -7.695312 4.867188 -7.277344 C 5.304688 -6.855469 5.523438 -6.335938 5.527344 -5.71875 C 5.523438 -5.402344 5.460938 -5.089844 5.332031 -4.789062 C 5.203125 -4.484375 4.988281 -4.164062 4.691406 -3.828125 C 4.390625 -3.488281 3.894531 -3.027344 3.203125 -2.445312 C 2.621094 -1.953125 2.246094 -1.625 2.082031 -1.453125 C 1.914062 -1.277344 1.78125 -1.101562 1.675781 -0.929688 Z M 5.539062 -0.929688 "/>
</g>
<g id="glyph-3-0">
<path d="M 5.335938 -0.84375 C 4.902344 -0.476562 4.488281 -0.21875 4.09375 -0.0703125 C 3.695312 0.078125 3.269531 0.152344 2.816406 0.15625 C 2.0625 0.152344 1.484375 -0.0273438 1.082031 -0.394531 C 0.675781 -0.761719 0.472656 -1.234375 0.476562 -1.804688 C 0.472656 -2.140625 0.550781 -2.445312 0.703125 -2.722656 C 0.855469 -3 1.054688 -3.222656 1.304688 -3.390625 C 1.550781 -3.554688 1.828125 -3.679688 2.140625 -3.769531 C 2.363281 -3.824219 2.707031 -3.882812 3.171875 -3.945312 C 4.105469 -4.054688 4.796875 -4.1875 5.238281 -4.34375 C 5.242188 -4.5 5.242188 -4.601562 5.246094 -4.648438 C 5.242188 -5.117188 5.132812 -5.449219 4.917969 -5.644531 C 4.617188 -5.902344 4.179688 -6.035156 3.597656 -6.039062 C 3.050781 -6.035156 2.644531 -5.9375 2.386719 -5.75 C 2.125 -5.554688 1.933594 -5.21875 1.8125 -4.738281 L 0.675781 -4.890625 C 0.777344 -5.375 0.949219 -5.765625 1.183594 -6.066406 C 1.417969 -6.363281 1.757812 -6.59375 2.210938 -6.757812 C 2.65625 -6.914062 3.175781 -6.996094 3.765625 -7 C 4.347656 -6.996094 4.820312 -6.925781 5.1875 -6.792969 C 5.546875 -6.652344 5.816406 -6.480469 5.992188 -6.273438 C 6.160156 -6.0625 6.28125 -5.800781 6.355469 -5.484375 C 6.390625 -5.285156 6.410156 -4.925781 6.414062 -4.414062 L 6.414062 -2.867188 C 6.410156 -1.785156 6.433594 -1.105469 6.488281 -0.820312 C 6.535156 -0.535156 6.632812 -0.261719 6.78125 0 L 5.570312 0 C 5.445312 -0.238281 5.367188 -0.519531 5.335938 -0.84375 Z M 5.238281 -3.433594 C 4.816406 -3.261719 4.183594 -3.113281 3.34375 -2.996094 C 2.863281 -2.925781 2.527344 -2.851562 2.332031 -2.765625 C 2.132812 -2.679688 1.980469 -2.550781 1.875 -2.386719 C 1.765625 -2.21875 1.710938 -2.035156 1.714844 -1.835938 C 1.710938 -1.523438 1.828125 -1.265625 2.066406 -1.0625 C 2.296875 -0.851562 2.640625 -0.75 3.09375 -0.753906 C 3.539062 -0.75 3.933594 -0.847656 4.285156 -1.046875 C 4.628906 -1.238281 4.886719 -1.507812 5.054688 -1.851562 C 5.175781 -2.109375 5.238281 -2.496094 5.238281 -3.011719 Z M 5.238281 -3.433594 "/>
</g>
<g id="glyph-3-1">
<path d="M 1.628906 2.777344 L 0.800781 2.777344 C 2.082031 0.714844 2.722656 -1.347656 2.726562 -3.414062 C 2.722656 -4.222656 2.632812 -5.023438 2.449219 -5.820312 C 2.300781 -6.460938 2.09375 -7.082031 1.835938 -7.675781 C 1.664062 -8.0625 1.320312 -8.707031 0.800781 -9.609375 L 1.628906 -9.609375 C 2.4375 -8.53125 3.035156 -7.449219 3.421875 -6.363281 C 3.75 -5.425781 3.914062 -4.445312 3.917969 -3.421875 C 3.914062 -2.261719 3.691406 -1.140625 3.25 -0.0585938 C 2.804688 1.023438 2.265625 1.96875 1.628906 2.777344 Z M 1.628906 2.777344 "/>
</g>
<g id="glyph-3-2">
</g>
<g id="glyph-3-3">
<path d="M 1.230469 0 L 1.230469 -9.449219 L 2.480469 -9.449219 L 2.480469 0 Z M 1.230469 0 "/>
</g>
<g id="glyph-3-4">
<path d="M 0.871094 0 L 0.871094 -6.84375 L 1.90625 -6.84375 L 1.90625 -5.882812 C 2.117188 -6.21875 2.40625 -6.488281 2.765625 -6.691406 C 3.121094 -6.894531 3.527344 -6.996094 3.984375 -7 C 4.488281 -6.996094 4.902344 -6.890625 5.230469 -6.683594 C 5.554688 -6.46875 5.785156 -6.175781 5.917969 -5.800781 C 6.457031 -6.597656 7.160156 -6.996094 8.03125 -7 C 8.707031 -6.996094 9.230469 -6.808594 9.597656 -6.433594 C 9.960938 -6.058594 10.140625 -5.480469 10.144531 -4.699219 L 10.144531 0 L 8.992188 0 L 8.992188 -4.3125 C 8.988281 -4.773438 8.949219 -5.105469 8.878906 -5.3125 C 8.800781 -5.515625 8.664062 -5.679688 8.46875 -5.804688 C 8.265625 -5.925781 8.035156 -5.988281 7.773438 -5.992188 C 7.289062 -5.988281 6.890625 -5.828125 6.574219 -5.511719 C 6.253906 -5.191406 6.09375 -4.679688 6.097656 -3.976562 L 6.097656 0 L 4.9375 0 L 4.9375 -4.445312 C 4.933594 -4.957031 4.839844 -5.34375 4.652344 -5.605469 C 4.464844 -5.859375 4.15625 -5.988281 3.726562 -5.992188 C 3.398438 -5.988281 3.09375 -5.902344 2.816406 -5.734375 C 2.539062 -5.558594 2.339844 -5.308594 2.214844 -4.980469 C 2.089844 -4.648438 2.027344 -4.171875 2.03125 -3.550781 L 2.03125 0 Z M 0.871094 0 "/>
</g>
<g id="glyph-3-5">
<path d="M 0.871094 2.625 L 0.871094 -6.84375 L 1.925781 -6.84375 L 1.925781 -5.957031 C 2.171875 -6.300781 2.453125 -6.5625 2.769531 -6.738281 C 3.082031 -6.910156 3.464844 -6.996094 3.914062 -7 C 4.496094 -6.996094 5.007812 -6.84375 5.457031 -6.546875 C 5.902344 -6.242188 6.242188 -5.820312 6.46875 -5.273438 C 6.695312 -4.726562 6.808594 -4.125 6.8125 -3.472656 C 6.808594 -2.769531 6.683594 -2.140625 6.433594 -1.582031 C 6.183594 -1.019531 5.816406 -0.589844 5.339844 -0.292969 C 4.855469 0.00390625 4.351562 0.152344 3.828125 0.15625 C 3.4375 0.152344 3.09375 0.0742188 2.789062 -0.0898438 C 2.480469 -0.25 2.226562 -0.457031 2.03125 -0.710938 L 2.03125 2.625 Z M 1.921875 -3.382812 C 1.921875 -2.5 2.097656 -1.851562 2.457031 -1.429688 C 2.808594 -1.007812 3.242188 -0.796875 3.75 -0.800781 C 4.265625 -0.796875 4.707031 -1.015625 5.074219 -1.453125 C 5.441406 -1.890625 5.625 -2.566406 5.625 -3.480469 C 5.625 -4.351562 5.445312 -5.003906 5.085938 -5.4375 C 4.726562 -5.871094 4.296875 -6.085938 3.804688 -6.089844 C 3.304688 -6.085938 2.867188 -5.855469 2.492188 -5.394531 C 2.109375 -4.929688 1.921875 -4.257812 1.921875 -3.382812 Z M 1.921875 -3.382812 "/>
</g>
<g id="glyph-3-6">
<path d="M 0.84375 0 L 0.84375 -9.449219 L 2.003906 -9.449219 L 2.003906 0 Z M 0.84375 0 "/>
</g>
<g id="glyph-3-7">
<path d="M 0.875 -8.113281 L 0.875 -9.449219 L 2.035156 -9.449219 L 2.035156 -8.113281 Z M 0.875 0 L 0.875 -6.84375 L 2.035156 -6.84375 L 2.035156 0 Z M 0.875 0 "/>
</g>
<g id="glyph-3-8">
<path d="M 5.554688 -2.203125 L 6.753906 -2.054688 C 6.5625 -1.351562 6.210938 -0.808594 5.703125 -0.421875 C 5.1875 -0.0390625 4.535156 0.152344 3.746094 0.15625 C 2.738281 0.152344 1.945312 -0.152344 1.363281 -0.769531 C 0.773438 -1.382812 0.480469 -2.25 0.484375 -3.363281 C 0.480469 -4.515625 0.777344 -5.410156 1.371094 -6.046875 C 1.964844 -6.679688 2.734375 -6.996094 3.679688 -7 C 4.59375 -6.996094 5.339844 -6.683594 5.921875 -6.0625 C 6.5 -5.4375 6.789062 -4.5625 6.792969 -3.433594 C 6.789062 -3.363281 6.789062 -3.257812 6.785156 -3.125 L 1.683594 -3.125 C 1.722656 -2.371094 1.9375 -1.796875 2.320312 -1.398438 C 2.703125 -0.996094 3.179688 -0.796875 3.75 -0.800781 C 4.175781 -0.796875 4.539062 -0.90625 4.839844 -1.132812 C 5.140625 -1.351562 5.378906 -1.710938 5.554688 -2.203125 Z M 1.746094 -4.078125 L 5.570312 -4.078125 C 5.515625 -4.65625 5.367188 -5.085938 5.128906 -5.375 C 4.757812 -5.820312 4.28125 -6.046875 3.691406 -6.046875 C 3.160156 -6.046875 2.710938 -5.867188 2.347656 -5.511719 C 1.984375 -5.152344 1.785156 -4.675781 1.746094 -4.078125 Z M 1.746094 -4.078125 "/>
</g>
<g id="glyph-3-9">
<path d="M 5.3125 0 L 5.3125 -0.863281 C 4.875 -0.183594 4.238281 0.152344 3.398438 0.15625 C 2.851562 0.152344 2.347656 0.00390625 1.890625 -0.292969 C 1.433594 -0.59375 1.078125 -1.011719 0.828125 -1.554688 C 0.574219 -2.09375 0.449219 -2.714844 0.453125 -3.414062 C 0.449219 -4.097656 0.5625 -4.71875 0.792969 -5.273438 C 1.015625 -5.828125 1.359375 -6.253906 1.816406 -6.554688 C 2.269531 -6.847656 2.777344 -6.996094 3.34375 -7 C 3.753906 -6.996094 4.121094 -6.910156 4.445312 -6.738281 C 4.765625 -6.5625 5.027344 -6.335938 5.234375 -6.058594 L 5.234375 -9.449219 L 6.386719 -9.449219 L 6.386719 0 Z M 1.644531 -3.414062 C 1.640625 -2.535156 1.824219 -1.878906 2.199219 -1.449219 C 2.566406 -1.011719 3.003906 -0.796875 3.507812 -0.800781 C 4.011719 -0.796875 4.441406 -1.003906 4.796875 -1.421875 C 5.152344 -1.832031 5.332031 -2.464844 5.332031 -3.320312 C 5.332031 -4.253906 5.148438 -4.941406 4.789062 -5.378906 C 4.421875 -5.816406 3.976562 -6.035156 3.453125 -6.039062 C 2.933594 -6.035156 2.503906 -5.824219 2.160156 -5.40625 C 1.8125 -4.984375 1.640625 -4.320312 1.644531 -3.414062 Z M 1.644531 -3.414062 "/>
</g>
<g id="glyph-3-10">
<path d="M 0.855469 0 L 0.855469 -6.84375 L 1.902344 -6.84375 L 1.902344 -5.808594 C 2.164062 -6.289062 2.410156 -6.609375 2.636719 -6.765625 C 2.863281 -6.917969 3.109375 -6.996094 3.382812 -7 C 3.769531 -6.996094 4.167969 -6.871094 4.578125 -6.625 L 4.175781 -5.550781 C 3.890625 -5.714844 3.605469 -5.800781 3.324219 -5.800781 C 3.066406 -5.800781 2.839844 -5.722656 2.640625 -5.570312 C 2.4375 -5.417969 2.292969 -5.207031 2.210938 -4.9375 C 2.078125 -4.523438 2.015625 -4.070312 2.015625 -3.582031 L 2.015625 0 Z M 0.855469 0 "/>
</g>
<g id="glyph-3-11">
<path d="M 0.4375 -3.421875 C 0.433594 -4.6875 0.785156 -5.625 1.496094 -6.238281 C 2.082031 -6.742188 2.800781 -6.996094 3.648438 -7 C 4.585938 -6.996094 5.355469 -6.6875 5.953125 -6.074219 C 6.550781 -5.453125 6.847656 -4.601562 6.851562 -3.519531 C 6.847656 -2.636719 6.714844 -1.945312 6.453125 -1.441406 C 6.1875 -0.933594 5.804688 -0.539062 5.300781 -0.261719 C 4.792969 0.015625 4.242188 0.152344 3.648438 0.15625 C 2.6875 0.152344 1.914062 -0.152344 1.324219 -0.765625 C 0.730469 -1.378906 0.433594 -2.265625 0.4375 -3.421875 Z M 1.628906 -3.421875 C 1.628906 -2.546875 1.820312 -1.890625 2.203125 -1.453125 C 2.585938 -1.015625 3.066406 -0.796875 3.648438 -0.800781 C 4.222656 -0.796875 4.703125 -1.015625 5.085938 -1.457031 C 5.46875 -1.890625 5.660156 -2.558594 5.660156 -3.460938 C 5.660156 -4.304688 5.464844 -4.945312 5.082031 -5.382812 C 4.691406 -5.816406 4.214844 -6.035156 3.648438 -6.039062 C 3.066406 -6.035156 2.585938 -5.816406 2.203125 -5.386719 C 1.820312 -4.949219 1.628906 -4.296875 1.628906 -3.421875 Z M 1.628906 -3.421875 "/>
</g>
<g id="glyph-3-12">
<path d="M 0.871094 0 L 0.871094 -6.84375 L 1.914062 -6.84375 L 1.914062 -5.871094 C 2.414062 -6.621094 3.140625 -6.996094 4.09375 -7 C 4.503906 -6.996094 4.882812 -6.921875 5.230469 -6.777344 C 5.574219 -6.625 5.832031 -6.429688 6.007812 -6.191406 C 6.175781 -5.949219 6.296875 -5.664062 6.367188 -5.335938 C 6.410156 -5.121094 6.433594 -4.746094 6.433594 -4.207031 L 6.433594 0 L 5.273438 0 L 5.273438 -4.164062 C 5.273438 -4.632812 5.226562 -4.984375 5.136719 -5.222656 C 5.042969 -5.453125 4.882812 -5.640625 4.65625 -5.78125 C 4.425781 -5.917969 4.15625 -5.988281 3.847656 -5.992188 C 3.351562 -5.988281 2.925781 -5.832031 2.566406 -5.523438 C 2.207031 -5.207031 2.027344 -4.613281 2.03125 -3.738281 L 2.03125 0 Z M 0.871094 0 "/>
</g>
<g id="glyph-3-13">
<path d="M 1.039062 0 L 1.039062 -9.449219 L 5.226562 -9.449219 C 6.070312 -9.445312 6.710938 -9.359375 7.148438 -9.195312 C 7.585938 -9.023438 7.933594 -8.726562 8.195312 -8.296875 C 8.457031 -7.867188 8.589844 -7.390625 8.589844 -6.871094 C 8.589844 -6.199219 8.371094 -5.632812 7.9375 -5.175781 C 7.503906 -4.710938 6.835938 -4.421875 5.929688 -4.300781 C 6.257812 -4.140625 6.507812 -3.980469 6.683594 -3.828125 C 7.046875 -3.488281 7.394531 -3.070312 7.722656 -2.570312 L 9.363281 0 L 7.792969 0 L 6.542969 -1.964844 C 6.171875 -2.527344 5.871094 -2.960938 5.636719 -3.265625 C 5.402344 -3.5625 5.191406 -3.773438 5.003906 -3.898438 C 4.816406 -4.015625 4.625 -4.101562 4.433594 -4.152344 C 4.289062 -4.179688 4.058594 -4.195312 3.738281 -4.195312 L 2.289062 -4.195312 L 2.289062 0 Z M 2.289062 -5.277344 L 4.976562 -5.277344 C 5.542969 -5.273438 5.992188 -5.332031 6.316406 -5.453125 C 6.636719 -5.570312 6.878906 -5.761719 7.050781 -6.023438 C 7.214844 -6.28125 7.300781 -6.5625 7.300781 -6.871094 C 7.300781 -7.3125 7.136719 -7.679688 6.8125 -7.972656 C 6.488281 -8.257812 5.976562 -8.402344 5.277344 -8.40625 L 2.289062 -8.40625 Z M 2.289062 -5.277344 "/>
</g>
<g id="glyph-3-14">
<path d="M 6.644531 -1.113281 L 6.644531 0 L 0.398438 0 C 0.390625 -0.277344 0.433594 -0.542969 0.535156 -0.804688 C 0.691406 -1.226562 0.945312 -1.648438 1.296875 -2.0625 C 1.644531 -2.472656 2.152344 -2.949219 2.816406 -3.492188 C 3.839844 -4.335938 4.535156 -5.003906 4.898438 -5.496094 C 5.257812 -5.988281 5.4375 -6.453125 5.441406 -6.890625 C 5.4375 -7.347656 5.273438 -7.734375 4.945312 -8.050781 C 4.617188 -8.367188 4.1875 -8.523438 3.660156 -8.527344 C 3.101562 -8.523438 2.65625 -8.355469 2.320312 -8.023438 C 1.984375 -7.6875 1.8125 -7.226562 1.8125 -6.632812 L 0.617188 -6.753906 C 0.695312 -7.640625 1.003906 -8.320312 1.539062 -8.789062 C 2.070312 -9.253906 2.785156 -9.484375 3.6875 -9.488281 C 4.589844 -9.484375 5.308594 -9.234375 5.839844 -8.734375 C 6.367188 -8.230469 6.632812 -7.605469 6.632812 -6.863281 C 6.632812 -6.480469 6.554688 -6.109375 6.398438 -5.75 C 6.242188 -5.382812 5.984375 -5 5.628906 -4.59375 C 5.269531 -4.1875 4.671875 -3.632812 3.839844 -2.933594 C 3.140625 -2.34375 2.695312 -1.945312 2.5 -1.742188 C 2.300781 -1.53125 2.136719 -1.324219 2.011719 -1.113281 Z M 6.644531 -1.113281 "/>
</g>
</g>
<clipPath id="clip-0">
<path clip-rule="nonzero" d="M 5.480469 227 L 426.523438 227 L 426.523438 228 L 5.480469 228 Z M 5.480469 227 "/>
</clipPath>
<clipPath id="clip-1">
<path clip-rule="nonzero" d="M 5.480469 168 L 426.523438 168 L 426.523438 170 L 5.480469 170 Z M 5.480469 168 "/>
</clipPath>
<clipPath id="clip-2">
<path clip-rule="nonzero" d="M 5.480469 110 L 426.523438 110 L 426.523438 111 L 5.480469 111 Z M 5.480469 110 "/>
</clipPath>
<clipPath id="clip-3">
<path clip-rule="nonzero" d="M 5.480469 52 L 426.523438 52 L 426.523438 53 L 5.480469 53 Z M 5.480469 52 "/>
</clipPath>
<clipPath id="clip-4">
<path clip-rule="nonzero" d="M 57 23.1875 L 59 23.1875 L 59 256.511719 L 57 256.511719 Z M 57 23.1875 "/>
</clipPath>
<clipPath id="clip-5">
<path clip-rule="nonzero" d="M 163 23.1875 L 164 23.1875 L 164 256.511719 L 163 256.511719 Z M 163 23.1875 "/>
</clipPath>
<clipPath id="clip-6">
<path clip-rule="nonzero" d="M 268 23.1875 L 269 23.1875 L 269 256.511719 L 268 256.511719 Z M 268 23.1875 "/>
</clipPath>
<clipPath id="clip-7">
<path clip-rule="nonzero" d="M 373 23.1875 L 375 23.1875 L 375 256.511719 L 373 256.511719 Z M 373 23.1875 "/>
</clipPath>
<clipPath id="clip-8">
<path clip-rule="nonzero" d="M 5.480469 255 L 426.523438 255 L 426.523438 256.511719 L 5.480469 256.511719 Z M 5.480469 255 "/>
</clipPath>
<clipPath id="clip-9">
<path clip-rule="nonzero" d="M 5.480469 197 L 426.523438 197 L 426.523438 199 L 5.480469 199 Z M 5.480469 197 "/>
</clipPath>
<clipPath id="clip-10">
<path clip-rule="nonzero" d="M 5.480469 139 L 426.523438 139 L 426.523438 141 L 5.480469 141 Z M 5.480469 139 "/>
</clipPath>
<clipPath id="clip-11">
<path clip-rule="nonzero" d="M 5.480469 80 L 426.523438 80 L 426.523438 83 L 5.480469 83 Z M 5.480469 80 "/>
</clipPath>
<clipPath id="clip-12">
<path clip-rule="nonzero" d="M 5.480469 23.1875 L 426.523438 23.1875 L 426.523438 24 L 5.480469 24 Z M 5.480469 23.1875 "/>
</clipPath>
<clipPath id="clip-13">
<path clip-rule="nonzero" d="M 5.480469 23.1875 L 7 23.1875 L 7 256.511719 L 5.480469 256.511719 Z M 5.480469 23.1875 "/>
</clipPath>
<clipPath id="clip-14">
<path clip-rule="nonzero" d="M 110 23.1875 L 112 23.1875 L 112 256.511719 L 110 256.511719 Z M 110 23.1875 "/>
</clipPath>
<clipPath id="clip-15">
<path clip-rule="nonzero" d="M 215 23.1875 L 217 23.1875 L 217 256.511719 L 215 256.511719 Z M 215 23.1875 "/>
</clipPath>
<clipPath id="clip-16">
<path clip-rule="nonzero" d="M 320 23.1875 L 322 23.1875 L 322 256.511719 L 320 256.511719 Z M 320 23.1875 "/>
</clipPath>
<clipPath id="clip-17">
<path clip-rule="nonzero" d="M 425 23.1875 L 426.523438 23.1875 L 426.523438 256.511719 L 425 256.511719 Z M 425 23.1875 "/>
</clipPath>
<clipPath id="clip-18">
<path clip-rule="nonzero" d="M 5.480469 242 L 426.523438 242 L 426.523438 256.511719 L 5.480469 256.511719 Z M 5.480469 242 "/>
</clipPath>
<clipPath id="clip-19">
<path clip-rule="nonzero" d="M 5.480469 146 L 426.523438 146 L 426.523438 256.511719 L 5.480469 256.511719 Z M 5.480469 146 "/>
</clipPath>
<clipPath id="clip-20">
<path clip-rule="nonzero" d="M 5.480469 244 L 426.523438 244 L 426.523438 256.511719 L 5.480469 256.511719 Z M 5.480469 244 "/>
</clipPath>
<clipPath id="clip-21">
<path clip-rule="nonzero" d="M 5.480469 57 L 426.523438 57 L 426.523438 256.511719 L 5.480469 256.511719 Z M 5.480469 57 "/>
</clipPath>
</defs>
<rect x="-43.2" y="-28.8" width="518.4" height="345.6" fill="rgb(100%, 100%, 100%)" fill-opacity="1"/>
<rect x="-43.2" y="-28.8" width="518.4" height="345.6" fill="rgb(100%, 100%, 100%)" fill-opacity="1"/>
<g clip-path="url(#clip-0)">
<path fill="none" stroke-width="0.533489" stroke-linecap="butt" stroke-linejoin="round" stroke="rgb(92.156863%, 92.156863%, 92.156863%)" stroke-opacity="1" stroke-miterlimit="10" d="M 5.480469 227.34375 L 426.519531 227.34375 "/>
</g>
<g clip-path="url(#clip-1)">
<path fill="none" stroke-width="0.533489" stroke-linecap="butt" stroke-linejoin="round" stroke="rgb(92.156863%, 92.156863%, 92.156863%)" stroke-opacity="1" stroke-miterlimit="10" d="M 5.480469 169.011719 L 426.519531 169.011719 "/>
</g>
<g clip-path="url(#clip-2)">
<path fill="none" stroke-width="0.533489" stroke-linecap="butt" stroke-linejoin="round" stroke="rgb(92.156863%, 92.156863%, 92.156863%)" stroke-opacity="1" stroke-miterlimit="10" d="M 5.480469 110.683594 L 426.519531 110.683594 "/>
</g>
<g clip-path="url(#clip-3)">
<path fill="none" stroke-width="0.533489" stroke-linecap="butt" stroke-linejoin="round" stroke="rgb(92.156863%, 92.156863%, 92.156863%)" stroke-opacity="1" stroke-miterlimit="10" d="M 5.480469 52.351562 L 426.519531 52.351562 "/>
</g>
<g clip-path="url(#clip-4)">
<path fill="none" stroke-width="0.533489" stroke-linecap="butt" stroke-linejoin="round" stroke="rgb(92.156863%, 92.156863%, 92.156863%)" stroke-opacity="1" stroke-miterlimit="10" d="M 58.109375 256.507812 L 58.109375 23.1875 "/>
</g>
<g clip-path="url(#clip-5)">
<path fill="none" stroke-width="0.533489" stroke-linecap="butt" stroke-linejoin="round" stroke="rgb(92.156863%, 92.156863%, 92.156863%)" stroke-opacity="1" stroke-miterlimit="10" d="M 163.371094 256.507812 L 163.371094 23.1875 "/>
</g>
<g clip-path="url(#clip-6)">
<path fill="none" stroke-width="0.533489" stroke-linecap="butt" stroke-linejoin="round" stroke="rgb(92.156863%, 92.156863%, 92.156863%)" stroke-opacity="1" stroke-miterlimit="10" d="M 268.628906 256.507812 L 268.628906 23.1875 "/>
</g>
<g clip-path="url(#clip-7)">
<path fill="none" stroke-width="0.533489" stroke-linecap="butt" stroke-linejoin="round" stroke="rgb(92.156863%, 92.156863%, 92.156863%)" stroke-opacity="1" stroke-miterlimit="10" d="M 373.890625 256.507812 L 373.890625 23.1875 "/>
</g>
<g clip-path="url(#clip-8)">
<path fill="none" stroke-width="1.066978" stroke-linecap="butt" stroke-linejoin="round" stroke="rgb(92.156863%, 92.156863%, 92.156863%)" stroke-opacity="1" stroke-miterlimit="10" d="M 5.480469 256.507812 L 426.519531 256.507812 "/>
</g>
<g clip-path="url(#clip-9)">
<path fill="none" stroke-width="1.066978" stroke-linecap="butt" stroke-linejoin="round" stroke="rgb(92.156863%, 92.156863%, 92.156863%)" stroke-opacity="1" stroke-miterlimit="10" d="M 5.480469 198.179688 L 426.519531 198.179688 "/>
</g>
<g clip-path="url(#clip-10)">
<path fill="none" stroke-width="1.066978" stroke-linecap="butt" stroke-linejoin="round" stroke="rgb(92.156863%, 92.156863%, 92.156863%)" stroke-opacity="1" stroke-miterlimit="10" d="M 5.480469 139.847656 L 426.519531 139.847656 "/>
</g>
<g clip-path="url(#clip-11)">
<path fill="none" stroke-width="1.066978" stroke-linecap="butt" stroke-linejoin="round" stroke="rgb(92.156863%, 92.156863%, 92.156863%)" stroke-opacity="1" stroke-miterlimit="10" d="M 5.480469 81.515625 L 426.519531 81.515625 "/>
</g>
<g clip-path="url(#clip-12)">
<path fill="none" stroke-width="1.066978" stroke-linecap="butt" stroke-linejoin="round" stroke="rgb(92.156863%, 92.156863%, 92.156863%)" stroke-opacity="1" stroke-miterlimit="10" d="M 5.480469 23.1875 L 426.519531 23.1875 "/>
</g>
<g clip-path="url(#clip-13)">
<path fill="none" stroke-width="1.066978" stroke-linecap="butt" stroke-linejoin="round" stroke="rgb(92.156863%, 92.156863%, 92.156863%)" stroke-opacity="1" stroke-miterlimit="10" d="M 5.480469 256.507812 L 5.480469 23.1875 "/>
</g>
<g clip-path="url(#clip-14)">
<path fill="none" stroke-width="1.066978" stroke-linecap="butt" stroke-linejoin="round" stroke="rgb(92.156863%, 92.156863%, 92.156863%)" stroke-opacity="1" stroke-miterlimit="10" d="M 110.738281 256.507812 L 110.738281 23.1875 "/>
</g>
<g clip-path="url(#clip-15)">
<path fill="none" stroke-width="1.066978" stroke-linecap="butt" stroke-linejoin="round" stroke="rgb(92.156863%, 92.156863%, 92.156863%)" stroke-opacity="1" stroke-miterlimit="10" d="M 216 256.507812 L 216 23.1875 "/>
</g>
<g clip-path="url(#clip-16)">
<path fill="none" stroke-width="1.066978" stroke-linecap="butt" stroke-linejoin="round" stroke="rgb(92.156863%, 92.156863%, 92.156863%)" stroke-opacity="1" stroke-miterlimit="10" d="M 321.261719 256.507812 L 321.261719 23.1875 "/>
</g>
<g clip-path="url(#clip-17)">
<path fill="none" stroke-width="1.066978" stroke-linecap="butt" stroke-linejoin="round" stroke="rgb(92.156863%, 92.156863%, 92.156863%)" stroke-opacity="1" stroke-miterlimit="10" d="M 426.519531 256.507812 L 426.519531 23.1875 "/>
</g>
<g clip-path="url(#clip-18)">
<path fill="none" stroke-width="2.133957" stroke-linecap="butt" stroke-linejoin="bevel" stroke="rgb(59.607843%, 30.588235%, 63.921569%)" stroke-opacity="0.6" stroke-miterlimit="10" d="M 6.261719 244.015625 L 7.109375 244.023438 L 7.957031 244.039062 L 8.804688 244.058594 L 9.652344 244.082031 L 10.5 244.113281 L 11.347656 244.148438 L 12.195312 244.1875 L 13.042969 244.230469 L 13.890625 244.277344 L 14.738281 244.328125 L 15.582031 244.382812 L 17.277344 244.5 L 18.972656 244.625 L 24.90625 245.089844 L 25.75 245.15625 L 26.597656 245.21875 L 27.445312 245.285156 L 29.988281 245.472656 L 31.683594 245.589844 L 32.53125 245.644531 L 33.378906 245.703125 L 34.226562 245.757812 L 35.070312 245.808594 L 35.917969 245.863281 L 38.460938 246.015625 L 43.546875 246.296875 L 44.394531 246.339844 L 45.238281 246.386719 L 46.085938 246.433594 L 46.933594 246.476562 L 49.476562 246.617188 L 50.324219 246.660156 L 51.171875 246.707031 L 52.019531 246.757812 L 53.714844 246.851562 L 54.5625 246.902344 L 55.40625 246.949219 L 61.339844 247.304688 L 62.1875 247.359375 L 63.882812 247.460938 L 64.730469 247.507812 L 65.574219 247.558594 L 66.421875 247.609375 L 68.964844 247.75 L 69.8125 247.792969 L 70.660156 247.839844 L 71.507812 247.878906 L 72.355469 247.921875 L 74.898438 248.039062 L 75.742188 248.074219 L 76.589844 248.105469 L 77.4375 248.140625 L 79.980469 248.234375 L 82.523438 248.316406 L 83.371094 248.339844 L 84.21875 248.367188 L 85.066406 248.390625 L 85.910156 248.417969 L 95.234375 248.675781 L 96.078125 248.699219 L 96.925781 248.722656 L 97.773438 248.75 L 99.46875 248.796875 L 100.316406 248.824219 L 101.164062 248.847656 L 102.011719 248.875 L 102.859375 248.898438 L 103.707031 248.925781 L 104.554688 248.949219 L 105.402344 248.976562 L 106.246094 249 L 107.09375 249.023438 L 107.941406 249.050781 L 112.179688 249.167969 L 113.027344 249.1875 L 113.875 249.210938 L 114.722656 249.230469 L 115.570312 249.253906 L 116.414062 249.273438 L 125.738281 249.488281 L 126.582031 249.507812 L 127.429688 249.53125 L 128.277344 249.550781 L 132.515625 249.667969 L 135.90625 249.777344 L 136.75 249.804688 L 137.597656 249.835938 L 138.445312 249.863281 L 145.226562 250.113281 L 146.074219 250.140625 L 146.917969 250.171875 L 147.765625 250.203125 L 148.613281 250.230469 L 149.460938 250.261719 L 151.15625 250.316406 L 152.003906 250.347656 L 152.851562 250.371094 L 154.546875 250.425781 L 155.394531 250.449219 L 156.242188 250.476562 L 157.085938 250.5 L 161.324219 250.617188 L 162.171875 250.636719 L 164.714844 250.707031 L 165.5625 250.726562 L 166.410156 250.75 L 167.253906 250.769531 L 168.949219 250.816406 L 169.796875 250.835938 L 170.644531 250.859375 L 171.492188 250.878906 L 172.339844 250.902344 L 174.035156 250.941406 L 174.882812 250.964844 L 176.578125 251.003906 L 177.421875 251.023438 L 178.269531 251.042969 L 179.117188 251.058594 L 179.964844 251.078125 L 181.660156 251.109375 L 182.507812 251.128906 L 183.355469 251.144531 L 184.203125 251.15625 L 185.898438 251.1875 L 186.746094 251.199219 L 187.589844 251.210938 L 188.4375 251.226562 L 190.980469 251.261719 L 191.828125 251.277344 L 193.523438 251.300781 L 194.371094 251.316406 L 195.21875 251.328125 L 196.914062 251.359375 L 197.757812 251.375 L 198.605469 251.390625 L 202.84375 251.488281 L 207.082031 251.605469 L 207.925781 251.632812 L 208.773438 251.65625 L 209.621094 251.683594 L 210.46875 251.707031 L 211.316406 251.734375 L 212.164062 251.757812 L 213.011719 251.785156 L 214.707031 251.832031 L 215.554688 251.859375 L 216.402344 251.882812 L 217.25 251.902344 L 218.09375 251.925781 L 222.332031 252.023438 L 227.417969 252.117188 L 228.261719 252.128906 L 229.957031 252.160156 L 230.804688 252.171875 L 237.585938 252.296875 L 238.429688 252.3125 L 239.277344 252.332031 L 240.125 252.347656 L 240.972656 252.367188 L 241.820312 252.382812 L 242.667969 252.402344 L 243.515625 252.417969 L 244.363281 252.4375 L 245.210938 252.453125 L 246.90625 252.492188 L 247.753906 252.507812 L 248.597656 252.527344 L 249.445312 252.542969 L 250.292969 252.5625 L 251.140625 252.578125 L 252.835938 252.617188 L 253.683594 252.632812 L 254.53125 252.652344 L 255.378906 252.667969 L 257.921875 252.726562 L 258.765625 252.746094 L 260.460938 252.785156 L 261.308594 252.808594 L 263.003906 252.847656 L 265.546875 252.917969 L 266.394531 252.9375 L 268.089844 252.984375 L 268.933594 253.007812 L 269.78125 253.03125 L 270.628906 253.058594 L 278.257812 253.269531 L 279.101562 253.292969 L 281.644531 253.363281 L 282.492188 253.382812 L 284.1875 253.429688 L 285.882812 253.46875 L 286.730469 253.492188 L 288.425781 253.53125 L 289.269531 253.550781 L 290.964844 253.589844 L 292.660156 253.621094 L 293.507812 253.640625 L 295.203125 253.671875 L 296.050781 253.683594 L 296.898438 253.699219 L 297.746094 253.710938 L 298.59375 253.726562 L 299.4375 253.738281 L 301.132812 253.761719 L 301.980469 253.769531 L 305.371094 253.816406 L 306.21875 253.824219 L 308.761719 253.859375 L 309.605469 253.871094 L 310.453125 253.886719 L 312.148438 253.910156 L 318.929688 254.035156 L 319.773438 254.050781 L 320.621094 254.066406 L 321.46875 254.085938 L 326.554688 254.179688 L 327.402344 254.191406 L 328.25 254.207031 L 329.097656 254.21875 L 329.941406 254.234375 L 339.265625 254.363281 L 340.109375 254.375 L 340.957031 254.390625 L 341.804688 254.402344 L 344.347656 254.449219 L 345.195312 254.46875 L 346.042969 254.484375 L 348.585938 254.542969 L 349.433594 254.566406 L 350.277344 254.585938 L 353.667969 254.679688 L 354.515625 254.707031 L 356.210938 254.753906 L 357.058594 254.78125 L 358.753906 254.828125 L 359.601562 254.855469 L 360.445312 254.878906 L 362.988281 254.949219 L 363.835938 254.96875 L 364.683594 254.992188 L 365.53125 255.011719 L 366.378906 255.035156 L 368.921875 255.09375 L 369.769531 255.109375 L 370.613281 255.128906 L 371.460938 255.144531 L 372.308594 255.164062 L 374.003906 255.195312 L 374.851562 255.214844 L 379.9375 255.308594 L 380.78125 255.324219 L 381.628906 255.339844 L 382.476562 255.359375 L 384.171875 255.390625 L 385.019531 255.410156 L 385.867188 255.425781 L 386.714844 255.445312 L 387.5625 255.460938 L 389.257812 255.5 L 390.101562 255.519531 L 390.949219 255.535156 L 391.796875 255.554688 L 392.644531 255.578125 L 395.1875 255.636719 L 396.035156 255.660156 L 397.730469 255.699219 L 399.425781 255.746094 L 400.269531 255.765625 L 401.117188 255.789062 L 401.964844 255.808594 L 403.660156 255.855469 L 404.507812 255.875 L 406.203125 255.921875 L 407.050781 255.941406 L 407.898438 255.964844 L 408.746094 255.984375 L 409.59375 256.007812 L 410.4375 256.027344 L 414.675781 256.125 L 418.914062 256.203125 L 419.761719 256.214844 L 420.605469 256.230469 L 421.453125 256.242188 L 422.300781 256.25 L 423.148438 256.261719 L 424.84375 256.277344 L 425.691406 256.28125 "/>
</g>
<g clip-path="url(#clip-19)">
<path fill="none" stroke-width="2.133957" stroke-linecap="butt" stroke-linejoin="bevel" stroke="rgb(30.196078%, 68.627451%, 29.019608%)" stroke-opacity="0.6" stroke-miterlimit="10" d="M 6.324219 147.914062 L 7.164062 152.878906 L 8.007812 160.613281 L 8.851562 169.824219 L 9.695312 179.34375 L 10.539062 188.691406 L 11.382812 197.058594 L 12.226562 204.078125 L 13.070312 209.851562 L 13.910156 214.503906 L 14.753906 218.203125 L 15.597656 221.140625 L 16.441406 223.5625 L 17.285156 225.597656 L 18.128906 227.3125 L 18.972656 228.816406 L 19.816406 230.152344 L 20.65625 231.332031 L 21.5 232.398438 L 22.34375 233.375 L 23.1875 234.265625 L 24.03125 235.097656 L 24.875 235.878906 L 25.71875 236.605469 L 26.558594 237.292969 L 27.402344 237.941406 L 28.246094 238.554688 L 29.089844 239.136719 L 29.933594 239.691406 L 30.777344 240.21875 L 31.621094 240.722656 L 32.464844 241.199219 L 33.304688 241.644531 L 34.148438 242.066406 L 34.992188 242.464844 L 35.835938 242.84375 L 36.679688 243.214844 L 37.523438 243.582031 L 38.367188 243.929688 L 39.210938 244.261719 L 40.050781 244.5625 L 40.894531 244.820312 L 41.738281 245.035156 L 42.582031 245.214844 L 43.425781 245.371094 L 44.269531 245.523438 L 45.113281 245.695312 L 45.953125 245.894531 L 46.796875 246.128906 L 47.640625 246.386719 L 49.328125 246.941406 L 50.171875 247.207031 L 51.015625 247.449219 L 51.859375 247.664062 L 52.699219 247.855469 L 53.542969 248.023438 L 54.386719 248.171875 L 55.230469 248.304688 L 56.074219 248.425781 L 57.761719 248.644531 L 58.601562 248.753906 L 59.445312 248.867188 L 60.289062 248.996094 L 61.132812 249.132812 L 61.976562 249.285156 L 62.820312 249.445312 L 63.664062 249.609375 L 64.507812 249.769531 L 65.347656 249.921875 L 66.191406 250.050781 L 67.035156 250.160156 L 67.878906 250.238281 L 68.722656 250.292969 L 69.566406 250.324219 L 70.410156 250.339844 L 71.253906 250.34375 L 72.09375 250.347656 L 72.9375 250.355469 L 73.78125 250.371094 L 74.625 250.394531 L 75.46875 250.433594 L 76.3125 250.480469 L 77.15625 250.542969 L 77.996094 250.613281 L 79.683594 250.753906 L 80.527344 250.8125 L 81.371094 250.859375 L 82.214844 250.886719 L 83.058594 250.910156 L 83.902344 250.929688 L 84.742188 250.964844 L 85.585938 251.019531 L 86.429688 251.097656 L 87.273438 251.199219 L 88.117188 251.316406 L 88.960938 251.441406 L 89.804688 251.558594 L 90.648438 251.65625 L 91.488281 251.730469 L 92.332031 251.785156 L 93.175781 251.816406 L 94.019531 251.839844 L 94.863281 251.859375 L 95.707031 251.882812 L 96.550781 251.917969 L 97.390625 251.964844 L 98.234375 252.03125 L 99.078125 252.113281 L 99.921875 252.210938 L 100.765625 252.316406 L 101.609375 252.433594 L 102.453125 252.546875 L 103.296875 252.65625 L 104.136719 252.753906 L 104.980469 252.84375 L 105.824219 252.917969 L 106.667969 252.980469 L 107.511719 253.027344 L 108.355469 253.058594 L 109.199219 253.074219 L 110.042969 253.070312 L 110.882812 253.042969 L 111.726562 253 L 112.570312 252.949219 L 113.414062 252.894531 L 114.257812 252.847656 L 115.101562 252.820312 L 115.945312 252.8125 L 116.785156 252.828125 L 117.628906 252.871094 L 118.472656 252.929688 L 119.316406 253 L 121.003906 253.15625 L 121.847656 253.21875 L 122.691406 253.269531 L 123.53125 253.296875 L 124.375 253.308594 L 125.21875 253.300781 L 126.90625 253.269531 L 127.75 253.257812 L 128.59375 253.261719 L 129.4375 253.28125 L 130.277344 253.316406 L 131.121094 253.363281 L 131.964844 253.421875 L 134.496094 253.609375 L 135.339844 253.664062 L 136.179688 253.71875 L 137.023438 253.765625 L 137.867188 253.808594 L 138.710938 253.839844 L 139.554688 253.867188 L 140.398438 253.890625 L 141.242188 253.910156 L 142.085938 253.925781 L 142.925781 253.949219 L 143.769531 253.976562 L 146.300781 254.082031 L 147.144531 254.113281 L 147.988281 254.136719 L 148.828125 254.152344 L 149.671875 254.15625 L 150.515625 254.15625 L 151.359375 254.152344 L 153.890625 254.128906 L 154.734375 254.125 L 155.574219 254.117188 L 157.261719 254.117188 L 158.105469 254.121094 L 158.949219 254.136719 L 159.792969 254.160156 L 160.636719 254.1875 L 161.480469 254.222656 L 162.320312 254.257812 L 164.007812 254.328125 L 164.851562 254.355469 L 165.695312 254.386719 L 167.382812 254.441406 L 168.222656 254.472656 L 169.910156 254.535156 L 170.753906 254.558594 L 171.597656 254.578125 L 172.441406 254.585938 L 173.285156 254.582031 L 174.128906 254.570312 L 174.96875 254.550781 L 175.8125 254.53125 L 176.65625 254.507812 L 177.5 254.492188 L 178.34375 254.480469 L 179.1875 254.472656 L 180.03125 254.472656 L 180.875 254.476562 L 181.714844 254.488281 L 182.558594 254.5 L 183.402344 254.515625 L 185.089844 254.539062 L 185.933594 254.542969 L 186.777344 254.535156 L 187.617188 254.523438 L 188.460938 254.511719 L 189.304688 254.496094 L 190.148438 254.488281 L 190.992188 254.488281 L 191.835938 254.496094 L 192.679688 254.511719 L 193.523438 254.535156 L 194.363281 254.554688 L 195.207031 254.574219 L 196.894531 254.597656 L 197.738281 254.597656 L 198.582031 254.59375 L 199.425781 254.582031 L 200.269531 254.566406 L 201.109375 254.550781 L 201.953125 254.535156 L 202.796875 254.527344 L 203.640625 254.527344 L 204.484375 254.539062 L 205.328125 254.566406 L 206.171875 254.601562 L 207.011719 254.644531 L 207.855469 254.6875 L 208.699219 254.722656 L 209.542969 254.75 L 210.386719 254.765625 L 212.074219 254.773438 L 212.917969 254.773438 L 213.757812 254.777344 L 214.601562 254.789062 L 216.289062 254.835938 L 217.132812 254.863281 L 217.976562 254.882812 L 218.820312 254.898438 L 219.664062 254.898438 L 220.503906 254.890625 L 221.347656 254.875 L 222.191406 254.855469 L 223.035156 254.839844 L 223.878906 254.832031 L 224.722656 254.828125 L 225.566406 254.832031 L 226.40625 254.84375 L 228.09375 254.882812 L 230.625 254.964844 L 231.46875 254.984375 L 232.3125 254.996094 L 233.152344 255 L 233.996094 254.996094 L 234.839844 254.984375 L 236.527344 254.945312 L 237.371094 254.929688 L 238.214844 254.921875 L 239.054688 254.917969 L 239.898438 254.921875 L 240.742188 254.929688 L 241.585938 254.941406 L 244.117188 254.964844 L 244.960938 254.96875 L 245.800781 254.980469 L 246.644531 254.992188 L 247.488281 255.011719 L 248.332031 255.039062 L 249.175781 255.070312 L 250.019531 255.105469 L 251.707031 255.183594 L 252.546875 255.21875 L 253.390625 255.25 L 254.234375 255.265625 L 255.078125 255.269531 L 255.921875 255.257812 L 256.765625 255.226562 L 257.609375 255.1875 L 258.449219 255.136719 L 259.292969 255.085938 L 260.136719 255.046875 L 260.980469 255.019531 L 261.824219 255.007812 L 262.667969 255.015625 L 263.511719 255.042969 L 264.355469 255.082031 L 265.195312 255.132812 L 266.882812 255.242188 L 267.726562 255.289062 L 268.570312 255.332031 L 269.414062 255.367188 L 270.257812 255.386719 L 271.101562 255.398438 L 271.941406 255.394531 L 272.785156 255.378906 L 273.628906 255.355469 L 274.472656 255.324219 L 275.316406 255.289062 L 276.160156 255.25 L 277.003906 255.21875 L 277.84375 255.191406 L 278.6875 255.167969 L 279.53125 255.148438 L 280.375 255.132812 L 281.21875 255.125 L 282.0625 255.128906 L 282.90625 255.140625 L 283.75 255.171875 L 284.589844 255.210938 L 285.433594 255.261719 L 286.277344 255.320312 L 287.121094 255.371094 L 287.964844 255.417969 L 288.808594 255.453125 L 289.652344 255.472656 L 290.496094 255.476562 L 291.335938 255.472656 L 292.179688 255.460938 L 293.023438 255.445312 L 293.867188 255.433594 L 295.554688 255.425781 L 296.398438 255.429688 L 297.238281 255.433594 L 298.082031 255.433594 L 298.925781 255.429688 L 299.769531 255.417969 L 300.613281 255.394531 L 301.457031 255.363281 L 302.300781 255.328125 L 303.144531 255.289062 L 303.984375 255.25 L 304.828125 255.21875 L 305.671875 255.199219 L 306.515625 255.191406 L 307.359375 255.195312 L 308.203125 255.207031 L 309.046875 255.222656 L 309.890625 255.242188 L 310.730469 255.261719 L 311.574219 255.28125 L 313.261719 255.335938 L 314.105469 255.367188 L 314.949219 255.402344 L 315.792969 255.441406 L 316.632812 255.480469 L 317.476562 255.515625 L 318.320312 255.542969 L 319.164062 255.566406 L 320.007812 255.582031 L 320.851562 255.582031 L 321.695312 255.578125 L 322.539062 255.566406 L 323.378906 255.550781 L 324.222656 255.535156 L 325.910156 255.511719 L 326.753906 255.507812 L 330.125 255.507812 L 332.65625 255.519531 L 334.34375 255.535156 L 335.1875 255.546875 L 336.027344 255.558594 L 339.402344 255.605469 L 341.089844 255.613281 L 341.933594 255.609375 L 342.773438 255.597656 L 343.617188 255.585938 L 345.304688 255.546875 L 346.148438 255.523438 L 346.992188 255.503906 L 347.835938 255.492188 L 348.675781 255.488281 L 349.519531 255.492188 L 350.363281 255.507812 L 351.207031 255.53125 L 352.050781 255.550781 L 352.894531 255.566406 L 353.738281 255.570312 L 354.582031 255.5625 L 355.421875 255.546875 L 356.265625 255.523438 L 357.109375 255.496094 L 357.953125 255.472656 L 358.796875 255.457031 L 359.640625 255.453125 L 360.484375 255.457031 L 361.328125 255.46875 L 362.167969 255.484375 L 365.542969 255.5625 L 366.386719 255.585938 L 367.230469 255.613281 L 368.070312 255.640625 L 368.914062 255.667969 L 369.757812 255.691406 L 370.601562 255.710938 L 371.445312 255.722656 L 372.289062 255.722656 L 373.976562 255.707031 L 374.816406 255.699219 L 375.660156 255.703125 L 376.503906 255.714844 L 377.347656 255.738281 L 378.191406 255.769531 L 379.035156 255.804688 L 379.878906 255.835938 L 380.722656 255.855469 L 381.5625 255.863281 L 382.40625 255.859375 L 383.25 255.851562 L 384.9375 255.820312 L 385.78125 255.808594 L 386.625 255.800781 L 387.464844 255.792969 L 389.152344 255.777344 L 391.683594 255.742188 L 392.527344 255.726562 L 393.371094 255.714844 L 394.210938 255.703125 L 395.054688 255.691406 L 397.585938 255.644531 L 400.117188 255.585938 L 400.957031 255.570312 L 401.800781 255.558594 L 403.488281 255.542969 L 406.019531 255.542969 L 406.859375 255.550781 L 407.703125 255.558594 L 408.546875 255.570312 L 409.390625 255.585938 L 410.234375 255.605469 L 411.078125 255.628906 L 411.921875 255.648438 L 412.765625 255.660156 L 413.605469 255.667969 L 414.449219 255.667969 L 415.292969 255.660156 L 416.136719 255.644531 L 416.980469 255.625 L 418.667969 255.578125 L 419.507812 255.558594 L 420.351562 255.539062 L 421.195312 255.535156 L 422.039062 255.535156 L 422.882812 255.546875 L 423.726562 255.566406 L 424.570312 255.589844 L 425.414062 255.609375 L 426.253906 255.625 "/>
</g>
<g clip-path="url(#clip-20)">
<path fill="none" stroke-width="2.133957" stroke-linecap="butt" stroke-linejoin="bevel" stroke="rgb(21.568627%, 49.411765%, 72.156863%)" stroke-opacity="0.6" stroke-miterlimit="10" d="M 5.480469 256.507812 L 5.523438 248.113281 L 6.367188 248.109375 L 7.207031 248.101562 L 8.050781 248.085938 L 8.890625 248.0625 L 9.734375 248.035156 L 10.574219 248 L 11.417969 247.960938 L 12.257812 247.917969 L 13.101562 247.871094 L 13.945312 247.820312 L 14.785156 247.765625 L 15.628906 247.710938 L 16.46875 247.65625 L 17.3125 247.601562 L 18.152344 247.542969 L 18.996094 247.488281 L 19.835938 247.433594 L 20.679688 247.382812 L 21.519531 247.335938 L 22.363281 247.289062 L 23.207031 247.246094 L 24.046875 247.210938 L 24.890625 247.175781 L 25.730469 247.144531 L 26.574219 247.121094 L 27.414062 247.101562 L 28.257812 247.085938 L 29.097656 247.074219 L 30.785156 247.066406 L 31.625 247.070312 L 32.46875 247.078125 L 33.308594 247.089844 L 34.152344 247.109375 L 34.992188 247.128906 L 35.835938 247.152344 L 36.675781 247.179688 L 37.519531 247.207031 L 38.363281 247.242188 L 39.203125 247.277344 L 40.046875 247.316406 L 40.886719 247.355469 L 41.730469 247.398438 L 42.570312 247.441406 L 43.414062 247.484375 L 44.253906 247.53125 L 45.097656 247.578125 L 45.9375 247.628906 L 46.78125 247.675781 L 47.625 247.726562 L 48.464844 247.777344 L 49.308594 247.828125 L 50.148438 247.878906 L 50.992188 247.929688 L 51.832031 247.980469 L 52.675781 248.03125 L 53.515625 248.085938 L 55.203125 248.1875 L 56.042969 248.242188 L 56.886719 248.292969 L 57.726562 248.34375 L 58.570312 248.398438 L 59.410156 248.449219 L 60.253906 248.5 L 61.09375 248.550781 L 61.9375 248.605469 L 62.777344 248.65625 L 64.464844 248.757812 L 65.304688 248.808594 L 66.148438 248.863281 L 66.988281 248.914062 L 67.832031 248.964844 L 68.671875 249.011719 L 69.515625 249.0625 L 70.355469 249.113281 L 72.042969 249.214844 L 72.882812 249.261719 L 73.726562 249.3125 L 74.566406 249.359375 L 75.410156 249.40625 L 76.25 249.453125 L 77.09375 249.503906 L 77.933594 249.546875 L 78.777344 249.59375 L 79.617188 249.640625 L 80.460938 249.6875 L 81.304688 249.730469 L 82.144531 249.777344 L 82.988281 249.820312 L 83.828125 249.863281 L 84.671875 249.90625 L 85.511719 249.945312 L 86.355469 249.988281 L 87.195312 250.027344 L 88.039062 250.070312 L 88.882812 250.109375 L 89.722656 250.144531 L 90.566406 250.183594 L 91.40625 250.222656 L 92.25 250.257812 L 93.089844 250.292969 L 93.933594 250.328125 L 94.773438 250.363281 L 95.617188 250.394531 L 96.457031 250.429688 L 98.144531 250.492188 L 98.984375 250.523438 L 99.828125 250.554688 L 100.667969 250.585938 L 101.511719 250.613281 L 102.351562 250.644531 L 103.195312 250.671875 L 104.035156 250.703125 L 105.722656 250.757812 L 106.5625 250.789062 L 107.40625 250.816406 L 108.246094 250.847656 L 109.089844 250.875 L 109.929688 250.902344 L 110.773438 250.933594 L 111.613281 250.960938 L 112.457031 250.992188 L 113.296875 251.019531 L 114.140625 251.050781 L 114.984375 251.078125 L 115.824219 251.109375 L 116.667969 251.136719 L 117.507812 251.167969 L 118.351562 251.195312 L 119.191406 251.226562 L 120.035156 251.253906 L 120.875 251.28125 L 122.5625 251.335938 L 123.402344 251.363281 L 124.246094 251.386719 L 125.085938 251.414062 L 125.929688 251.4375 L 126.769531 251.460938 L 127.613281 251.484375 L 128.453125 251.503906 L 129.296875 251.527344 L 130.140625 251.546875 L 130.980469 251.5625 L 131.824219 251.582031 L 132.664062 251.601562 L 133.507812 251.617188 L 134.347656 251.632812 L 135.191406 251.648438 L 136.03125 251.664062 L 136.875 251.679688 L 137.714844 251.695312 L 138.558594 251.710938 L 139.402344 251.722656 L 140.242188 251.738281 L 141.085938 251.753906 L 141.925781 251.769531 L 142.769531 251.785156 L 143.609375 251.800781 L 144.453125 251.816406 L 145.292969 251.832031 L 146.980469 251.863281 L 147.820312 251.882812 L 148.664062 251.898438 L 149.503906 251.917969 L 150.347656 251.9375 L 151.1875 251.953125 L 152.03125 251.972656 L 152.871094 251.992188 L 153.714844 252.011719 L 154.554688 252.03125 L 156.242188 252.070312 L 157.082031 252.089844 L 157.925781 252.109375 L 158.765625 252.128906 L 159.609375 252.148438 L 160.449219 252.167969 L 161.292969 252.1875 L 162.132812 252.203125 L 163.820312 252.242188 L 164.660156 252.261719 L 165.503906 252.28125 L 166.34375 252.300781 L 167.1875 252.320312 L 168.027344 252.339844 L 168.871094 252.359375 L 169.710938 252.378906 L 170.554688 252.398438 L 171.394531 252.417969 L 173.082031 252.457031 L 173.921875 252.480469 L 174.765625 252.5 L 175.605469 252.519531 L 176.449219 252.539062 L 177.289062 252.558594 L 178.132812 252.574219 L 178.972656 252.59375 L 179.816406 252.613281 L 180.660156 252.628906 L 181.5 252.648438 L 182.34375 252.664062 L 183.183594 252.679688 L 184.027344 252.691406 L 184.867188 252.707031 L 185.710938 252.71875 L 186.550781 252.730469 L 187.394531 252.742188 L 188.234375 252.753906 L 189.921875 252.769531 L 190.761719 252.777344 L 191.605469 252.785156 L 192.445312 252.789062 L 193.289062 252.792969 L 194.128906 252.800781 L 194.972656 252.800781 L 195.8125 252.804688 L 197.5 252.8125 L 198.339844 252.8125 L 199.183594 252.816406 L 200.867188 252.816406 L 201.707031 252.820312 L 202.550781 252.820312 L 203.390625 252.824219 L 204.234375 252.824219 L 205.078125 252.828125 L 205.917969 252.832031 L 206.761719 252.835938 L 207.601562 252.839844 L 208.445312 252.84375 L 209.285156 252.847656 L 210.128906 252.851562 L 210.96875 252.859375 L 211.8125 252.867188 L 212.652344 252.871094 L 214.339844 252.886719 L 215.179688 252.894531 L 216.023438 252.90625 L 216.863281 252.914062 L 217.707031 252.925781 L 218.546875 252.933594 L 219.390625 252.945312 L 220.230469 252.957031 L 221.074219 252.964844 L 221.917969 252.976562 L 222.757812 252.988281 L 223.601562 253 L 224.441406 253.007812 L 225.285156 253.019531 L 226.125 253.03125 L 226.96875 253.039062 L 227.808594 253.050781 L 228.652344 253.058594 L 229.492188 253.066406 L 231.179688 253.082031 L 232.019531 253.089844 L 232.863281 253.09375 L 233.703125 253.101562 L 234.546875 253.105469 L 235.386719 253.109375 L 236.230469 253.113281 L 237.070312 253.117188 L 237.914062 253.117188 L 238.757812 253.121094 L 239.597656 253.121094 L 240.441406 253.125 L 243.808594 253.125 L 244.648438 253.128906 L 248.019531 253.128906 L 248.859375 253.132812 L 250.542969 253.132812 L 251.386719 253.136719 L 252.226562 253.136719 L 253.070312 253.140625 L 253.910156 253.144531 L 254.753906 253.148438 L 255.597656 253.148438 L 256.4375 253.152344 L 257.28125 253.15625 L 258.121094 253.164062 L 258.964844 253.167969 L 259.804688 253.171875 L 260.648438 253.179688 L 261.488281 253.183594 L 262.332031 253.191406 L 263.171875 253.199219 L 264.859375 253.214844 L 265.699219 253.222656 L 266.542969 253.230469 L 267.382812 253.238281 L 268.226562 253.246094 L 269.066406 253.253906 L 269.910156 253.265625 L 270.75 253.273438 L 271.59375 253.28125 L 272.4375 253.292969 L 273.277344 253.300781 L 274.121094 253.308594 L 274.960938 253.316406 L 275.804688 253.324219 L 276.644531 253.332031 L 277.488281 253.339844 L 278.328125 253.347656 L 279.171875 253.355469 L 280.011719 253.359375 L 280.855469 253.367188 L 281.699219 253.371094 L 282.539062 253.375 L 283.382812 253.378906 L 284.222656 253.378906 L 285.066406 253.382812 L 290.117188 253.382812 L 290.960938 253.378906 L 291.800781 253.378906 L 292.644531 253.375 L 293.484375 253.375 L 294.328125 253.371094 L 295.167969 253.367188 L 296.011719 253.367188 L 296.855469 253.363281 L 298.539062 253.363281 L 299.378906 253.359375 L 305.273438 253.359375 L 306.117188 253.363281 L 307.800781 253.363281 L 308.640625 253.367188 L 309.484375 253.367188 L 310.324219 253.371094 L 312.851562 253.371094 L 313.695312 253.375 L 314.535156 253.375 L 315.378906 253.371094 L 317.0625 253.371094 L 317.902344 253.367188 L 318.746094 253.367188 L 319.585938 253.363281 L 320.429688 253.359375 L 321.269531 253.355469 L 322.113281 253.351562 L 322.957031 253.34375 L 323.796875 253.339844 L 324.640625 253.332031 L 325.480469 253.324219 L 326.324219 253.316406 L 327.164062 253.308594 L 328.007812 253.300781 L 328.847656 253.292969 L 330.535156 253.277344 L 331.375 253.269531 L 332.21875 253.261719 L 333.058594 253.253906 L 333.902344 253.246094 L 334.742188 253.238281 L 335.585938 253.230469 L 336.425781 253.222656 L 337.269531 253.214844 L 338.109375 253.207031 L 338.953125 253.203125 L 339.796875 253.195312 L 340.636719 253.191406 L 341.480469 253.183594 L 342.320312 253.179688 L 343.164062 253.171875 L 344.003906 253.167969 L 344.847656 253.160156 L 345.6875 253.15625 L 346.53125 253.148438 L 347.375 253.144531 L 348.214844 253.136719 L 349.058594 253.128906 L 349.898438 253.121094 L 350.742188 253.113281 L 351.582031 253.105469 L 352.425781 253.097656 L 353.265625 253.089844 L 354.109375 253.078125 L 354.949219 253.070312 L 356.636719 253.046875 L 357.476562 253.035156 L 358.320312 253.023438 L 359.160156 253.011719 L 360.003906 253 L 360.84375 252.984375 L 361.6875 252.972656 L 362.527344 252.957031 L 363.371094 252.941406 L 364.214844 252.929688 L 365.054688 252.914062 L 365.898438 252.898438 L 366.738281 252.882812 L 367.582031 252.867188 L 368.421875 252.851562 L 369.265625 252.835938 L 370.105469 252.820312 L 370.949219 252.804688 L 371.792969 252.785156 L 372.632812 252.769531 L 373.476562 252.75 L 374.316406 252.734375 L 375.160156 252.714844 L 376 252.691406 L 376.84375 252.671875 L 377.683594 252.648438 L 378.527344 252.625 L 379.367188 252.601562 L 381.054688 252.546875 L 381.894531 252.515625 L 382.738281 252.484375 L 383.578125 252.449219 L 384.421875 252.414062 L 385.261719 252.375 L 386.105469 252.332031 L 386.945312 252.285156 L 388.632812 252.183594 L 389.472656 252.125 L 390.316406 252.066406 L 391.15625 252 L 392 251.929688 L 392.839844 251.851562 L 393.683594 251.773438 L 394.523438 251.683594 L 395.367188 251.59375 L 396.207031 251.492188 L 397.050781 251.386719 L 397.894531 251.273438 L 398.734375 251.148438 L 399.578125 251.019531 L 400.417969 250.882812 L 401.261719 250.734375 L 402.101562 250.578125 L 402.945312 250.414062 L 403.785156 250.238281 L 404.628906 250.058594 L 405.472656 249.863281 L 406.3125 249.664062 L 407.15625 249.453125 L 407.996094 249.234375 L 408.839844 249.007812 L 409.679688 248.777344 L 410.523438 248.539062 L 411.363281 248.300781 L 412.207031 248.054688 L 413.046875 247.808594 L 413.890625 247.5625 L 414.734375 247.320312 L 415.574219 247.082031 L 416.417969 246.847656 L 417.257812 246.625 L 418.101562 246.410156 L 418.941406 246.207031 L 419.785156 246.019531 L 420.625 245.851562 L 421.46875 245.699219 L 422.3125 245.566406 L 423.152344 245.457031 L 423.996094 245.371094 L 424.835938 245.308594 L 425.679688 245.269531 "/>
</g>
<g clip-path="url(#clip-21)">
<path fill="none" stroke-width="2.133957" stroke-linecap="butt" stroke-linejoin="bevel" stroke="rgb(89.411765%, 10.196078%, 10.980392%)" stroke-opacity="0.6" stroke-miterlimit="10" d="M 6.175781 256.480469 L 7.027344 256.476562 L 8.722656 256.484375 L 9.574219 256.488281 L 10.421875 256.484375 L 11.273438 256.476562 L 12.121094 256.476562 L 12.96875 256.484375 L 13.820312 256.488281 L 14.667969 256.492188 L 15.515625 256.484375 L 16.367188 256.472656 L 17.214844 256.464844 L 18.066406 256.460938 L 18.914062 256.460938 L 19.761719 256.46875 L 20.613281 256.476562 L 21.460938 256.488281 L 22.3125 256.488281 L 23.160156 256.476562 L 24.007812 256.453125 L 24.859375 256.425781 L 25.707031 256.390625 L 26.558594 256.359375 L 27.40625 256.332031 L 28.253906 256.324219 L 29.105469 256.339844 L 29.953125 256.367188 L 30.800781 256.402344 L 31.652344 256.425781 L 32.5 256.4375 L 33.351562 256.433594 L 34.199219 256.417969 L 35.046875 256.394531 L 35.898438 256.371094 L 36.746094 256.359375 L 37.597656 256.359375 L 38.445312 256.367188 L 39.292969 256.378906 L 40.144531 256.398438 L 40.992188 256.417969 L 41.84375 256.425781 L 42.691406 256.417969 L 43.539062 256.390625 L 44.390625 256.351562 L 45.238281 256.320312 L 46.089844 256.308594 L 46.9375 256.304688 L 47.785156 256.304688 L 48.636719 256.300781 L 49.484375 256.300781 L 50.332031 256.308594 L 51.183594 256.324219 L 52.03125 256.347656 L 52.882812 256.363281 L 53.730469 256.375 L 54.578125 256.382812 L 55.429688 256.394531 L 56.277344 256.414062 L 57.128906 256.433594 L 57.976562 256.4375 L 58.824219 256.425781 L 59.675781 256.398438 L 60.523438 256.375 L 61.375 256.367188 L 62.222656 256.375 L 63.070312 256.398438 L 63.921875 256.417969 L 64.769531 256.425781 L 65.617188 256.421875 L 66.46875 256.40625 L 67.316406 256.378906 L 68.167969 256.34375 L 69.015625 256.3125 L 69.863281 256.292969 L 70.714844 256.289062 L 71.5625 256.304688 L 72.414062 256.324219 L 73.261719 256.332031 L 74.109375 256.324219 L 74.960938 256.300781 L 75.808594 256.277344 L 76.660156 256.261719 L 77.507812 256.253906 L 78.355469 256.257812 L 79.207031 256.269531 L 80.054688 256.273438 L 80.90625 256.253906 L 81.753906 256.230469 L 82.601562 256.222656 L 83.453125 256.246094 L 84.300781 256.289062 L 85.148438 256.3125 L 86 256.3125 L 86.847656 256.296875 L 87.699219 256.273438 L 88.546875 256.253906 L 89.394531 256.238281 L 90.246094 256.226562 L 91.09375 256.230469 L 91.945312 256.238281 L 92.792969 256.246094 L 93.640625 256.242188 L 94.492188 256.242188 L 95.339844 256.246094 L 96.191406 256.257812 L 97.039062 256.277344 L 97.886719 256.304688 L 98.738281 256.332031 L 100.433594 256.378906 L 101.285156 256.394531 L 102.132812 256.398438 L 102.984375 256.386719 L 103.832031 256.359375 L 104.679688 256.328125 L 105.53125 256.296875 L 106.378906 256.269531 L 107.230469 256.238281 L 108.078125 256.199219 L 108.925781 256.15625 L 109.777344 256.132812 L 110.625 256.128906 L 111.476562 256.152344 L 112.324219 256.199219 L 113.171875 256.25 L 114.023438 256.296875 L 114.871094 256.324219 L 115.71875 256.324219 L 116.570312 256.308594 L 117.417969 256.28125 L 118.269531 256.257812 L 119.117188 256.253906 L 119.964844 256.269531 L 120.816406 256.300781 L 121.664062 256.328125 L 122.515625 256.339844 L 123.363281 256.332031 L 124.210938 256.300781 L 125.0625 256.253906 L 125.910156 256.191406 L 126.761719 256.140625 L 127.609375 256.117188 L 128.457031 256.128906 L 129.308594 256.15625 L 130.15625 256.195312 L 131.007812 256.226562 L 131.855469 256.246094 L 132.703125 256.246094 L 133.554688 256.234375 L 134.402344 256.222656 L 135.25 256.214844 L 136.101562 256.210938 L 136.949219 256.191406 L 137.800781 256.144531 L 138.648438 256.085938 L 139.496094 256.050781 L 140.347656 256.054688 L 141.195312 256.09375 L 142.046875 256.140625 L 142.894531 256.167969 L 143.742188 256.15625 L 144.59375 256.128906 L 145.441406 256.097656 L 146.292969 256.085938 L 147.140625 256.085938 L 147.988281 256.09375 L 148.839844 256.109375 L 149.6875 256.117188 L 150.535156 256.117188 L 151.386719 256.097656 L 152.234375 256.066406 L 153.085938 256.035156 L 153.933594 256.011719 L 154.78125 256.011719 L 155.632812 256.035156 L 156.480469 256.085938 L 157.332031 256.144531 L 158.179688 256.203125 L 159.027344 256.242188 L 159.878906 256.253906 L 160.726562 256.230469 L 161.578125 256.191406 L 162.425781 256.148438 L 163.273438 256.117188 L 164.125 256.097656 L 164.972656 256.085938 L 165.824219 256.09375 L 166.671875 256.121094 L 167.519531 256.164062 L 168.371094 256.199219 L 169.21875 256.203125 L 170.066406 256.175781 L 170.917969 256.132812 L 171.765625 256.09375 L 172.617188 256.089844 L 173.464844 256.121094 L 174.3125 256.179688 L 175.164062 256.226562 L 176.011719 256.230469 L 176.863281 256.195312 L 177.710938 256.132812 L 178.558594 256.074219 L 179.410156 256.03125 L 180.257812 256.011719 L 181.109375 256.015625 L 181.957031 256.035156 L 182.804688 256.050781 L 183.65625 256.046875 L 184.503906 256.015625 L 185.351562 255.972656 L 186.203125 255.953125 L 187.050781 255.976562 L 187.902344 256.027344 L 188.75 256.089844 L 189.597656 256.125 L 190.449219 256.117188 L 191.296875 256.054688 L 192.148438 255.949219 L 192.996094 255.832031 L 193.84375 255.75 L 194.695312 255.71875 L 195.542969 255.726562 L 196.394531 255.75 L 197.242188 255.769531 L 198.089844 255.78125 L 198.941406 255.796875 L 199.789062 255.832031 L 200.640625 255.886719 L 201.488281 255.949219 L 202.335938 256 L 203.1875 256.023438 L 204.035156 256.015625 L 204.882812 255.96875 L 205.734375 255.878906 L 206.582031 255.777344 L 207.433594 255.699219 L 208.28125 255.6875 L 209.128906 255.734375 L 209.980469 255.792969 L 210.828125 255.816406 L 211.679688 255.785156 L 212.527344 255.730469 L 213.375 255.691406 L 214.226562 255.703125 L 215.074219 255.75 L 215.925781 255.804688 L 216.773438 255.832031 L 217.621094 255.820312 L 218.472656 255.785156 L 219.320312 255.726562 L 220.167969 255.660156 L 221.019531 255.59375 L 221.867188 255.550781 L 222.71875 255.550781 L 223.566406 255.570312 L 224.414062 255.601562 L 225.265625 255.625 L 226.113281 255.640625 L 226.964844 255.648438 L 227.8125 255.644531 L 228.660156 255.648438 L 229.511719 255.664062 L 230.359375 255.703125 L 231.210938 255.757812 L 232.058594 255.824219 L 232.90625 255.902344 L 233.757812 255.957031 L 234.605469 255.964844 L 235.453125 255.917969 L 236.304688 255.828125 L 237.152344 255.730469 L 238.003906 255.667969 L 238.851562 255.660156 L 239.699219 255.699219 L 240.550781 255.746094 L 241.398438 255.765625 L 242.25 255.726562 L 243.097656 255.640625 L 243.945312 255.535156 L 244.796875 255.441406 L 245.644531 255.386719 L 246.496094 255.394531 L 247.34375 255.464844 L 248.191406 255.546875 L 249.042969 255.59375 L 249.890625 255.582031 L 250.742188 255.53125 L 251.589844 255.476562 L 252.4375 255.445312 L 253.289062 255.441406 L 254.136719 255.433594 L 254.984375 255.386719 L 255.835938 255.292969 L 256.683594 255.1875 L 257.535156 255.109375 L 258.382812 255.097656 L 259.230469 255.152344 L 260.082031 255.246094 L 260.929688 255.320312 L 261.78125 255.328125 L 262.628906 255.25 L 263.476562 255.113281 L 264.328125 254.96875 L 265.175781 254.859375 L 266.027344 254.8125 L 266.875 254.816406 L 267.722656 254.832031 L 268.574219 254.820312 L 269.421875 254.789062 L 270.269531 254.777344 L 271.121094 254.804688 L 271.96875 254.875 L 272.820312 254.96875 L 273.667969 255.058594 L 274.515625 255.121094 L 275.367188 255.144531 L 276.214844 255.136719 L 277.066406 255.121094 L 277.914062 255.105469 L 278.761719 255.074219 L 279.613281 255.011719 L 280.460938 254.929688 L 281.3125 254.863281 L 282.160156 254.84375 L 283.007812 254.882812 L 283.859375 254.960938 L 284.707031 255.027344 L 285.558594 255.046875 L 286.40625 255.03125 L 287.253906 255.011719 L 288.105469 255.015625 L 288.953125 255.027344 L 289.800781 255.007812 L 290.652344 254.945312 L 291.5 254.859375 L 292.351562 254.789062 L 293.199219 254.753906 L 294.046875 254.738281 L 294.898438 254.71875 L 295.746094 254.679688 L 296.597656 254.648438 L 297.445312 254.640625 L 298.292969 254.660156 L 299.144531 254.667969 L 299.992188 254.644531 L 300.84375 254.582031 L 301.691406 254.488281 L 302.539062 254.382812 L 303.390625 254.296875 L 304.238281 254.234375 L 305.085938 254.195312 L 305.9375 254.175781 L 306.785156 254.171875 L 307.636719 254.164062 L 308.484375 254.140625 L 309.332031 254.089844 L 310.183594 254.035156 L 311.03125 254.015625 L 311.882812 254.03125 L 312.730469 254.054688 L 313.578125 254.046875 L 314.429688 253.992188 L 315.277344 253.894531 L 316.128906 253.800781 L 316.976562 253.75 L 317.824219 253.726562 L 318.675781 253.691406 L 319.523438 253.613281 L 320.375 253.519531 L 321.222656 253.449219 L 322.070312 253.429688 L 322.921875 253.460938 L 323.769531 253.542969 L 324.617188 253.679688 L 325.46875 253.832031 L 326.316406 253.929688 L 327.167969 253.925781 L 328.015625 253.824219 L 328.863281 253.660156 L 329.714844 253.472656 L 330.5625 253.28125 L 331.414062 253.105469 L 332.261719 252.976562 L 333.109375 252.910156 L 333.960938 252.878906 L 334.808594 252.847656 L 335.660156 252.78125 L 336.507812 252.691406 L 337.355469 252.609375 L 338.207031 252.570312 L 339.054688 252.582031 L 339.902344 252.628906 L 340.753906 252.664062 L 341.601562 252.648438 L 342.453125 252.550781 L 343.300781 252.359375 L 344.148438 252.136719 L 345 251.980469 L 345.847656 251.957031 L 346.699219 252.007812 L 347.546875 252.019531 L 348.394531 251.929688 L 349.246094 251.769531 L 350.09375 251.617188 L 350.945312 251.535156 L 351.792969 251.527344 L 352.640625 251.566406 L 353.492188 251.617188 L 354.339844 251.648438 L 355.1875 251.628906 L 356.039062 251.539062 L 356.886719 251.382812 L 357.738281 251.183594 L 358.585938 250.976562 L 359.433594 250.773438 L 360.285156 250.554688 L 361.132812 250.289062 L 361.984375 249.988281 L 362.832031 249.671875 L 363.679688 249.378906 L 364.53125 249.164062 L 365.378906 249.117188 L 366.230469 249.28125 L 367.078125 249.566406 L 367.925781 249.8125 L 368.777344 249.910156 L 369.625 249.859375 L 370.476562 249.726562 L 371.324219 249.542969 L 372.171875 249.292969 L 373.023438 248.972656 L 373.871094 248.632812 L 374.71875 248.351562 L 375.570312 248.183594 L 376.417969 248.125 L 377.269531 248.101562 L 378.117188 248.003906 L 378.964844 247.761719 L 379.816406 247.417969 L 380.664062 247.0625 L 381.515625 246.730469 L 382.363281 246.390625 L 383.210938 246.042969 L 384.0625 245.761719 L 384.910156 245.652344 L 385.761719 245.71875 L 386.609375 245.820312 L 387.457031 245.769531 L 388.308594 245.449219 L 389.15625 244.914062 L 390.003906 244.339844 L 390.855469 243.894531 L 391.703125 243.617188 L 392.554688 243.394531 L 393.402344 243.039062 L 394.25 242.441406 L 395.101562 241.667969 L 395.949219 240.925781 L 396.800781 240.390625 L 397.648438 240.089844 L 398.496094 239.875 L 399.347656 239.5625 L 400.195312 239.039062 L 401.046875 238.328125 L 401.894531 237.570312 L 402.742188 236.882812 L 403.59375 236.304688 L 404.441406 235.78125 L 405.292969 235.257812 L 406.140625 234.699219 L 406.988281 234.078125 L 407.839844 233.304688 L 408.6875 232.257812 L 409.535156 230.90625 L 410.386719 229.363281 L 411.234375 227.789062 L 412.085938 226.261719 L 412.933594 224.699219 L 413.78125 222.996094 L 414.632812 221.097656 L 415.480469 219 L 416.332031 216.664062 L 417.179688 213.988281 L 418.027344 210.867188 L 418.878906 207.183594 L 419.726562 202.679688 L 420.578125 196.761719 L 421.425781 188.28125 L 422.273438 175.175781 L 423.125 154.613281 L 423.972656 124.90625 L 424.820312 89.417969 L 425.671875 58.8125 "/>
</g>
<g fill="rgb(89.411765%, 10.196078%, 10.980392%)" fill-opacity="1">
<use xlink:href="#glyph-0-0" x="337.378906" y="183.585938"/>
<use xlink:href="#glyph-0-1" x="348.120933" y="183.585938"/>
<use xlink:href="#glyph-0-2" x="350.649449" y="183.585938"/>
<use xlink:href="#glyph-0-3" x="356.979076" y="183.585938"/>
<use xlink:href="#glyph-0-4" x="363.308703" y="183.585938"/>
<use xlink:href="#glyph-0-5" x="366.470738" y="183.585938"/>
<use xlink:href="#glyph-0-6" x="372.800364" y="183.585938"/>
<use xlink:href="#glyph-0-7" x="379.129991" y="183.585938"/>
<use xlink:href="#glyph-0-8" x="382.919987" y="183.585938"/>
<use xlink:href="#glyph-0-9" x="392.400534" y="183.585938"/>
<use xlink:href="#glyph-0-10" x="398.730161" y="183.585938"/>
</g>
<g fill="rgb(21.568627%, 49.411765%, 72.156863%)" fill-opacity="1">
<use xlink:href="#glyph-0-11" x="290.613281" y="232.582031"/>
<use xlink:href="#glyph-0-12" x="298.204388" y="232.582031"/>
<use xlink:href="#glyph-0-9" x="303.894939" y="232.582031"/>
<use xlink:href="#glyph-0-10" x="310.224566" y="232.582031"/>
<use xlink:href="#glyph-0-3" x="312.753082" y="232.582031"/>
<use xlink:href="#glyph-0-2" x="319.082709" y="232.582031"/>
<use xlink:href="#glyph-0-4" x="325.412335" y="232.582031"/>
<use xlink:href="#glyph-0-5" x="328.57437" y="232.582031"/>
<use xlink:href="#glyph-0-6" x="334.903997" y="232.582031"/>
<use xlink:href="#glyph-0-7" x="341.233624" y="232.582031"/>
<use xlink:href="#glyph-0-8" x="345.02362" y="232.582031"/>
<use xlink:href="#glyph-0-9" x="354.504167" y="232.582031"/>
<use xlink:href="#glyph-0-10" x="360.833794" y="232.582031"/>
</g>
<g fill="rgb(30.196078%, 68.627451%, 29.019608%)" fill-opacity="1">
<use xlink:href="#glyph-0-13" x="30.742188" y="183.585938"/>
<use xlink:href="#glyph-0-6" x="38.961255" y="183.585938"/>
<use xlink:href="#glyph-0-7" x="45.290882" y="183.585938"/>
<use xlink:href="#glyph-0-14" x="49.080878" y="183.585938"/>
<use xlink:href="#glyph-0-3" x="54.771429" y="183.585938"/>
<use xlink:href="#glyph-0-14" x="61.101056" y="183.585938"/>
<use xlink:href="#glyph-0-15" x="66.791607" y="183.585938"/>
<use xlink:href="#glyph-0-6" x="73.121234" y="183.585938"/>
<use xlink:href="#glyph-0-3" x="79.45086" y="183.585938"/>
</g>
<g fill="rgb(59.607843%, 30.588235%, 63.921569%)" fill-opacity="1">
<use xlink:href="#glyph-0-16" x="68.636719" y="232.582031"/>
<use xlink:href="#glyph-0-17" x="76.855786" y="232.582031"/>
<use xlink:href="#glyph-0-18" x="83.185413" y="232.582031"/>
<use xlink:href="#glyph-0-17" x="91.404481" y="232.582031"/>
</g>
<g fill="rgb(30.196078%, 30.196078%, 30.196078%)" fill-opacity="1">
<use xlink:href="#glyph-1-0" x="-3.082031" y="267.738281"/>
<use xlink:href="#glyph-1-1" x="1.812109" y="267.738281"/>
<use xlink:href="#glyph-1-0" x="4.257031" y="267.738281"/>
<use xlink:href="#glyph-1-0" x="9.151172" y="267.738281"/>
</g>
<g fill="rgb(30.196078%, 30.196078%, 30.196078%)" fill-opacity="1">
<use xlink:href="#glyph-1-0" x="102.175781" y="267.738281"/>
<use xlink:href="#glyph-1-1" x="107.069922" y="267.738281"/>
<use xlink:href="#glyph-1-2" x="109.514844" y="267.738281"/>
<use xlink:href="#glyph-1-3" x="114.408984" y="267.738281"/>
</g>
<g fill="rgb(30.196078%, 30.196078%, 30.196078%)" fill-opacity="1">
<use xlink:href="#glyph-1-0" x="207.4375" y="267.738281"/>
<use xlink:href="#glyph-1-1" x="212.331641" y="267.738281"/>
<use xlink:href="#glyph-1-3" x="214.776563" y="267.738281"/>
<use xlink:href="#glyph-1-0" x="219.670703" y="267.738281"/>
</g>
<g fill="rgb(30.196078%, 30.196078%, 30.196078%)" fill-opacity="1">
<use xlink:href="#glyph-1-0" x="312.699219" y="267.738281"/>
<use xlink:href="#glyph-1-1" x="317.593359" y="267.738281"/>
<use xlink:href="#glyph-1-4" x="320.038281" y="267.738281"/>
<use xlink:href="#glyph-1-3" x="324.932422" y="267.738281"/>
</g>
<g fill="rgb(30.196078%, 30.196078%, 30.196078%)" fill-opacity="1">
<use xlink:href="#glyph-1-5" x="417.957031" y="267.738281"/>
<use xlink:href="#glyph-1-1" x="422.851172" y="267.738281"/>
<use xlink:href="#glyph-1-0" x="425.296094" y="267.738281"/>
<use xlink:href="#glyph-1-0" x="430.190234" y="267.738281"/>
</g>
<g fill="rgb(0%, 0%, 0%)" fill-opacity="1">
<use xlink:href="#glyph-2-0" x="208.96875" y="280.207031"/>
<use xlink:href="#glyph-2-1" x="216.912598" y="280.207031"/>
</g>
<g fill="rgb(0%, 0%, 0%)" fill-opacity="1">
<use xlink:href="#glyph-3-0" x="5.480469" y="14.929688"/>
<use xlink:href="#glyph-3-1" x="12.82168" y="14.929688"/>
<use xlink:href="#glyph-3-2" x="17.217383" y="14.929688"/>
<use xlink:href="#glyph-3-3" x="20.884766" y="14.929688"/>
<use xlink:href="#glyph-3-4" x="24.552148" y="14.929688"/>
<use xlink:href="#glyph-3-5" x="35.547852" y="14.929688"/>
<use xlink:href="#glyph-3-6" x="42.889063" y="14.929688"/>
<use xlink:href="#glyph-3-7" x="45.82168" y="14.929688"/>
<use xlink:href="#glyph-3-8" x="48.754297" y="14.929688"/>
<use xlink:href="#glyph-3-9" x="56.095508" y="14.929688"/>
<use xlink:href="#glyph-3-2" x="63.436719" y="14.929688"/>
<use xlink:href="#glyph-3-5" x="67.104102" y="14.929688"/>
<use xlink:href="#glyph-3-10" x="74.445312" y="14.929688"/>
<use xlink:href="#glyph-3-7" x="78.841016" y="14.929688"/>
<use xlink:href="#glyph-3-11" x="81.773633" y="14.929688"/>
<use xlink:href="#glyph-3-10" x="89.114844" y="14.929688"/>
<use xlink:href="#glyph-3-2" x="93.510547" y="14.929688"/>
<use xlink:href="#glyph-3-11" x="97.17793" y="14.929688"/>
<use xlink:href="#glyph-3-12" x="104.519141" y="14.929688"/>
<use xlink:href="#glyph-3-2" x="111.860352" y="14.929688"/>
<use xlink:href="#glyph-3-13" x="115.527734" y="14.929688"/>
<use xlink:href="#glyph-3-14" x="125.060352" y="14.929688"/>
</g>
</svg>
